<svg width="258" height="112" viewBox="0 0 258 112" fill="none" xmlns="http://www.w3.org/2000/svg">
<g clip-path="url(#clip0_9_351)">
<path d="M232.724 46.2033H81.3536C80.7109 46.2033 80.0945 46.4588 79.64 46.9136C79.1855 47.3684 78.9302 47.9852 78.9302 48.6284C78.9302 49.2716 79.1855 49.8884 79.64 50.3432C80.0945 50.798 80.7109 51.0535 81.3536 51.0535H85.6412V109.07C85.6412 109.713 85.8965 110.33 86.351 110.784C86.8055 111.239 87.4219 111.495 88.0646 111.495C88.7074 111.495 89.3238 111.239 89.7782 110.784C90.2327 110.33 90.488 109.713 90.488 109.07L90.5249 51.0535H212.015L223.216 109.07C223.216 109.713 223.472 110.33 223.926 110.784C224.381 111.239 224.997 111.495 225.64 111.495C226.283 111.495 226.899 111.239 227.353 110.784C227.808 110.33 228.063 109.713 228.063 109.07L228.768 51.0535H232.724C233.366 51.0535 233.983 50.798 234.437 50.3432C234.892 49.8884 235.147 49.2716 235.147 48.6284C235.147 47.9852 234.892 47.3684 234.437 46.9136C233.983 46.4588 233.366 46.2033 232.724 46.2033Z" fill="#CCCCCC"/>
<path d="M107.592 35.3974V45.6671H81.8803C81.2064 45.6905 80.5346 45.5809 79.903 45.3446C79.2715 45.1082 78.6927 44.7496 78.1996 44.2894C77.7066 43.8292 77.3089 43.2763 77.0294 42.6623C76.7499 42.0483 76.594 41.3852 76.5705 40.7109C76.5471 40.0365 76.6566 39.3642 76.8928 38.7323C77.129 38.1003 77.4873 37.5211 77.9472 37.0277C78.4071 36.5343 78.9596 36.1363 79.5732 35.8566C80.1868 35.5769 80.8494 35.4209 81.5232 35.3974C81.6422 35.3933 81.7612 35.3933 81.8803 35.3974L107.592 35.3974Z" fill="#F2F2F2"/>
<path d="M108.223 45.5881C108.223 45.6928 108.182 45.7933 108.108 45.8673C108.034 45.9414 107.933 45.983 107.828 45.9831H81.4223C79.9888 45.9821 78.6144 45.4115 77.6011 44.3968C76.5878 43.3821 76.0186 42.0062 76.0186 40.5717C76.0186 39.1372 76.5878 37.7614 77.6011 36.7467C78.6144 35.732 79.9888 35.1614 81.4223 35.1604H107.828C107.88 35.1603 107.932 35.1704 107.98 35.1902C108.028 35.21 108.071 35.239 108.108 35.2757C108.145 35.3124 108.174 35.356 108.194 35.404C108.214 35.452 108.224 35.5034 108.224 35.5554C108.224 35.6073 108.214 35.6588 108.194 35.7068C108.174 35.7548 108.145 35.7984 108.108 35.8351C108.071 35.8717 108.028 35.9008 107.98 35.9206C107.932 35.9404 107.88 35.9505 107.828 35.9504H81.4223C80.1987 35.9522 79.0259 36.4399 78.1613 37.3064C77.2968 38.1729 76.8112 39.3473 76.8112 40.5717C76.8112 41.7962 77.2968 42.9706 78.1613 43.837C79.0259 44.7035 80.1987 45.1912 81.4223 45.1931H107.828C107.933 45.1931 108.034 45.2347 108.108 45.3088C108.182 45.3829 108.223 45.4833 108.223 45.5881Z" fill="#63D0FF"/>
<path d="M107.592 37.7673H79.9619C79.941 37.7674 79.9209 37.7592 79.906 37.7446C79.8912 37.7299 79.8827 37.7099 79.8825 37.689C79.8823 37.6681 79.8904 37.648 79.905 37.6331C79.9196 37.6181 79.9395 37.6096 79.9604 37.6093H107.592C107.612 37.6095 107.632 37.6179 107.647 37.6327C107.662 37.6475 107.67 37.6675 107.67 37.6883C107.67 37.7091 107.662 37.7291 107.647 37.7439C107.632 37.7587 107.612 37.7671 107.592 37.7673Z" fill="#CCCCCC"/>
<path d="M107.592 39.6632H79.9619C79.941 39.6633 79.9209 39.6552 79.906 39.6405C79.8912 39.6258 79.8827 39.6059 79.8825 39.585C79.8823 39.5641 79.8904 39.5439 79.905 39.529C79.9196 39.5141 79.9395 39.5055 79.9604 39.5052H107.592C107.612 39.5055 107.632 39.5139 107.647 39.5287C107.662 39.5435 107.67 39.5634 107.67 39.5842C107.67 39.6051 107.662 39.625 107.647 39.6398C107.632 39.6546 107.612 39.663 107.592 39.6632Z" fill="#CCCCCC"/>
<path d="M107.592 41.5592H79.9619C79.941 41.5593 79.9209 41.5511 79.906 41.5364C79.8912 41.5218 79.8827 41.5018 79.8825 41.4809C79.8823 41.46 79.8904 41.4399 79.905 41.4249C79.9196 41.41 79.9395 41.4015 79.9604 41.4012H107.592C107.612 41.4014 107.632 41.4098 107.647 41.4246C107.662 41.4394 107.67 41.4594 107.67 41.4802C107.67 41.501 107.662 41.521 107.647 41.5358C107.632 41.5506 107.612 41.559 107.592 41.5592Z" fill="#CCCCCC"/>
<path d="M107.592 43.4551H79.9619C79.941 43.4552 79.9209 43.447 79.906 43.4324C79.8912 43.4177 79.8827 43.3977 79.8825 43.3768C79.8823 43.3559 79.8904 43.3358 79.905 43.3209C79.9196 43.3059 79.9395 43.2974 79.9604 43.2971H107.592C107.612 43.2973 107.632 43.3057 107.647 43.3205C107.662 43.3353 107.67 43.3553 107.67 43.3761C107.67 43.3969 107.662 43.4169 107.647 43.4317C107.632 43.4465 107.612 43.4549 107.592 43.4551Z" fill="#CCCCCC"/>
<path d="M102.745 24.5777V34.8474H77.0334C75.6725 34.8947 74.3486 34.3992 73.3528 33.4697C72.357 32.5403 71.771 31.253 71.7237 29.8912C71.6763 28.5293 72.1715 27.2044 73.1004 26.208C74.0292 25.2115 75.3155 24.6251 76.6764 24.5777C76.7954 24.5735 76.9144 24.5735 77.0334 24.5777H102.745Z" fill="#F2F2F2"/>
<path d="M103.376 34.7684C103.376 34.8731 103.335 34.9735 103.261 35.0476C103.187 35.1217 103.086 35.1633 102.982 35.1633H76.5755C75.1413 35.1633 73.7659 34.5932 72.7518 33.5784C71.7377 32.5636 71.168 31.1872 71.168 29.752C71.168 28.3168 71.7377 26.9405 72.7518 25.9256C73.7659 24.9108 75.1413 24.3407 76.5755 24.3407H102.982C103.033 24.3407 103.085 24.3509 103.133 24.3708C103.181 24.3906 103.224 24.4197 103.261 24.4564C103.297 24.4931 103.326 24.5366 103.346 24.5845C103.366 24.6325 103.376 24.6838 103.376 24.7357C103.376 24.7876 103.366 24.8389 103.346 24.8868C103.326 24.9348 103.297 24.9783 103.261 25.015C103.224 25.0517 103.181 25.0807 103.133 25.1006C103.085 25.1204 103.033 25.1307 102.982 25.1307H76.5755C75.3507 25.1307 74.1761 25.6176 73.31 26.4842C72.4439 27.3509 71.9574 28.5264 71.9574 29.752C71.9574 30.9777 72.4439 32.1531 73.31 33.0198C74.1761 33.8865 75.3507 34.3734 76.5755 34.3734H102.982C103.086 34.3734 103.187 34.415 103.261 34.4891C103.335 34.5632 103.376 34.6636 103.376 34.7684Z" fill="#3F3D56"/>
<path d="M102.745 26.9476H75.115C75.0942 26.9477 75.0741 26.9395 75.0592 26.9249C75.0443 26.9102 75.0359 26.8902 75.0357 26.8693C75.0355 26.8484 75.0436 26.8283 75.0582 26.8134C75.0728 26.7984 75.0927 26.7899 75.1136 26.7896H102.745C102.766 26.7898 102.785 26.7982 102.8 26.813C102.815 26.8278 102.823 26.8478 102.823 26.8686C102.823 26.8894 102.815 26.9094 102.8 26.9242C102.785 26.939 102.766 26.9474 102.745 26.9476Z" fill="#CCCCCC"/>
<path d="M102.745 28.8435H75.115C75.0942 28.8437 75.0741 28.8355 75.0592 28.8208C75.0443 28.8061 75.0359 28.7862 75.0357 28.7653C75.0355 28.7444 75.0436 28.7243 75.0582 28.7093C75.0728 28.6944 75.0927 28.6858 75.1136 28.6855H102.745C102.766 28.6858 102.785 28.6942 102.8 28.709C102.815 28.7238 102.823 28.7437 102.823 28.7645C102.823 28.7854 102.815 28.8053 102.8 28.8201C102.785 28.8349 102.766 28.8433 102.745 28.8435Z" fill="#CCCCCC"/>
<path d="M102.745 30.7395H75.115C75.0942 30.7396 75.0741 30.7314 75.0592 30.7167C75.0443 30.7021 75.0359 30.6821 75.0357 30.6612C75.0355 30.6403 75.0436 30.6202 75.0582 30.6052C75.0728 30.5903 75.0927 30.5818 75.1136 30.5815H102.745C102.766 30.5817 102.785 30.5901 102.8 30.6049C102.815 30.6197 102.823 30.6397 102.823 30.6605C102.823 30.6813 102.815 30.7013 102.8 30.7161C102.785 30.7308 102.766 30.7393 102.745 30.7395Z" fill="#CCCCCC"/>
<path d="M102.745 32.6354H75.115C75.0942 32.6355 75.0741 32.6273 75.0592 32.6127C75.0443 32.598 75.0359 32.578 75.0357 32.5571C75.0355 32.5362 75.0436 32.5161 75.0582 32.5012C75.0728 32.4862 75.0927 32.4777 75.1136 32.4774H102.745C102.766 32.4776 102.785 32.486 102.8 32.5008C102.815 32.5156 102.823 32.5356 102.823 32.5564C102.823 32.5772 102.815 32.5972 102.8 32.612C102.785 32.6268 102.766 32.6352 102.745 32.6354Z" fill="#CCCCCC"/>
<path d="M132.655 82.5432V73.589C132.655 73.1932 132.498 72.8136 132.218 72.5337C131.938 72.2539 131.559 72.0966 131.164 72.0966H97.2359C96.8403 72.0966 96.461 72.2539 96.1813 72.5337C95.9017 72.8136 95.7445 73.1932 95.7445 73.589V82.5432H132.655Z" fill="#CCCCCC"/>
<path d="M132.655 85.9011H95.7445V97.467H132.655V85.9011Z" fill="#CCCCCC"/>
<path d="M95.7445 100.825V109.779C95.7445 110.175 95.9017 110.554 96.1813 110.834C96.461 111.114 96.8403 111.271 97.2359 111.271H131.164C131.559 111.271 131.938 111.114 132.218 110.834C132.498 110.554 132.655 110.175 132.655 109.779V100.825H95.7445Z" fill="#CCCCCC"/>
<path d="M114.013 78.8123C114.631 78.8123 115.132 78.3112 115.132 77.693C115.132 77.0748 114.631 76.5737 114.013 76.5737C113.396 76.5737 112.895 77.0748 112.895 77.693C112.895 78.3112 113.396 78.8123 114.013 78.8123Z" fill="white"/>
<path d="M114.013 93.7361C114.631 93.7361 115.132 93.2349 115.132 92.6168C115.132 91.9986 114.631 91.4975 114.013 91.4975C113.396 91.4975 112.895 91.9986 112.895 92.6168C112.895 93.2349 113.396 93.7361 114.013 93.7361Z" fill="white"/>
<path d="M114.073 108.344C114.691 108.344 115.192 107.843 115.192 107.225C115.192 106.606 114.691 106.105 114.073 106.105C113.456 106.105 112.955 106.606 112.955 107.225C112.955 107.843 113.456 108.344 114.073 108.344Z" fill="white"/>
<path d="M128.47 61.887V72.1567H102.759C101.399 72.2031 100.076 71.7071 99.0805 70.7778C98.0855 69.8484 97.5 68.5617 97.4526 67.2005C97.4052 65.8393 97.8999 64.515 98.8279 63.5186C99.7559 62.5222 101.041 61.9354 102.402 61.887C102.521 61.8829 102.64 61.8829 102.759 61.887H128.47Z" fill="#F2F2F2"/>
<path d="M129.102 72.0777C129.102 72.1824 129.06 72.2829 128.986 72.3569C128.912 72.431 128.812 72.4726 128.707 72.4727H102.301C100.867 72.473 99.4918 71.9035 98.4775 70.8894C97.4632 69.8752 96.8929 68.4994 96.8921 67.0646C96.8912 65.6298 97.4598 64.2533 98.4729 63.2379C99.486 62.2226 100.861 61.6514 102.294 61.65H128.707C128.759 61.6499 128.81 61.66 128.858 61.6798C128.906 61.6996 128.95 61.7287 128.987 61.7653C129.024 61.802 129.053 61.8456 129.073 61.8936C129.093 61.9416 129.103 61.9931 129.103 62.045C129.103 62.097 129.093 62.1484 129.073 62.1964C129.053 62.2444 129.024 62.288 128.987 62.3247C128.95 62.3614 128.906 62.3904 128.858 62.4102C128.81 62.43 128.759 62.4401 128.707 62.44H102.301C101.077 62.4416 99.9041 62.9292 99.0393 63.7957C98.1746 64.6622 97.6889 65.8367 97.6889 67.0613C97.6889 68.286 98.1746 69.4605 99.0393 70.327C99.9041 71.1935 101.077 71.6811 102.301 71.6827H128.707C128.812 71.6827 128.912 71.7244 128.986 71.7984C129.06 71.8725 129.102 71.9729 129.102 72.0777Z" fill="#3F3D56"/>
<path d="M128.47 64.2569H100.84C100.82 64.257 100.8 64.2489 100.785 64.2342C100.77 64.2195 100.761 64.1996 100.761 64.1787C100.761 64.1578 100.769 64.1376 100.784 64.1227C100.798 64.1078 100.818 64.0992 100.839 64.0989H128.47C128.491 64.0991 128.511 64.1076 128.526 64.1224C128.54 64.1372 128.548 64.1571 128.548 64.1779C128.548 64.1988 128.54 64.2187 128.526 64.2335C128.511 64.2483 128.491 64.2567 128.47 64.2569Z" fill="#CCCCCC"/>
<path d="M128.47 66.1529H100.84C100.82 66.153 100.8 66.1448 100.785 66.1301C100.77 66.1155 100.761 66.0955 100.761 66.0746C100.761 66.0537 100.769 66.0336 100.784 66.0186C100.798 66.0037 100.818 65.9951 100.839 65.9949H128.47C128.491 65.9951 128.511 66.0035 128.526 66.0183C128.54 66.0331 128.548 66.0531 128.548 66.0739C128.548 66.0947 128.54 66.1147 128.526 66.1295C128.511 66.1442 128.491 66.1527 128.47 66.1529Z" fill="#CCCCCC"/>
<path d="M128.47 68.0488H100.84C100.82 68.0489 100.8 68.0407 100.785 68.0261C100.77 68.0114 100.761 67.9914 100.761 67.9705C100.761 67.9496 100.769 67.9295 100.784 67.9146C100.798 67.8996 100.818 67.8911 100.839 67.8908H128.47C128.491 67.891 128.511 67.8994 128.526 67.9142C128.54 67.929 128.548 67.949 128.548 67.9698C128.548 67.9906 128.54 68.0106 128.526 68.0254C128.511 68.0402 128.491 68.0486 128.47 68.0488Z" fill="#CCCCCC"/>
<path d="M128.47 69.9447H100.84C100.82 69.9448 100.8 69.9367 100.785 69.922C100.77 69.9073 100.761 69.8874 100.761 69.8665C100.761 69.8456 100.769 69.8254 100.784 69.8105C100.798 69.7956 100.818 69.787 100.839 69.7867H128.47C128.491 69.787 128.511 69.7954 128.526 69.8102C128.54 69.8249 128.548 69.8449 128.548 69.8657C128.548 69.8865 128.54 69.9065 128.526 69.9213C128.511 69.9361 128.491 69.9445 128.47 69.9447Z" fill="#CCCCCC"/>
<path d="M98.2736 21.1517H86.5592C86.4481 21.1516 86.3384 21.1772 86.2386 21.2263L83.282 22.7075C83.1847 22.7489 83.1017 22.818 83.0434 22.9063C82.9851 22.9945 82.954 23.0979 82.954 23.2037C82.954 23.3095 82.9851 23.413 83.0434 23.5012C83.1017 23.5894 83.1847 23.6586 83.282 23.6999L86.2386 25.1811C86.3384 25.2303 86.4481 25.2558 86.5592 25.2557H98.2736C98.435 25.2651 98.5936 25.2104 98.7151 25.1036C98.8365 24.9967 98.911 24.8463 98.9224 24.6849V21.7225C98.911 21.5611 98.8365 21.4107 98.7151 21.3039C98.5936 21.197 98.435 21.1424 98.2736 21.1517Z" fill="#3F3D56"/>
<path d="M98.9224 21.7226V24.6849C98.911 24.8463 98.8365 24.9967 98.7151 25.1036C98.5936 25.2104 98.435 25.2651 98.2736 25.2558H95.9398V21.1517H98.2736C98.435 21.1424 98.5936 21.197 98.7151 21.3039C98.8365 21.4107 98.911 21.5612 98.9224 21.7226Z" fill="#63D0FF"/>
<path d="M28.0423 79.1977C29.5507 79.7283 31.1703 79.8612 32.7449 79.5837C34.3195 79.3061 35.7962 78.6274 37.0326 77.613C40.1815 74.9682 41.1687 70.6109 41.972 66.5763C42.764 62.5985 43.556 58.6206 44.348 54.6428L39.3736 58.0704C35.7963 60.5353 32.1384 63.0792 29.6615 66.6495C27.1846 70.2199 26.1034 75.0937 28.0935 78.957" fill="#E6E6E6"/>
<path d="M28.4676 93.6458C27.9641 89.9759 27.4464 86.2588 27.7995 82.5496C28.1132 79.2553 29.1175 76.0378 31.1622 73.3996C32.2475 72.002 33.5681 70.8044 35.0646 69.8609C35.4548 69.6144 35.814 70.2333 35.4255 70.4787C32.836 72.1164 30.8332 74.5347 29.7057 77.3848C28.4605 80.5544 28.2605 84.0095 28.4751 87.3765C28.6049 89.4126 28.8799 91.4354 29.157 93.4556C29.1789 93.547 29.1653 93.6432 29.1189 93.7249C29.0726 93.8066 28.9969 93.8676 28.9073 93.8957C28.8159 93.9203 28.7185 93.9079 28.6362 93.8611C28.5538 93.8143 28.4932 93.737 28.4676 93.6458Z" fill="#F2F2F2"/>
<path d="M33.317 87.1518C33.9639 88.1357 34.8531 88.9363 35.899 89.4765C36.9449 90.0167 38.1122 90.2782 39.2884 90.2359C42.3112 90.0923 44.8313 87.9811 47.0998 85.9767L53.8097 80.0483L49.3689 79.8356C46.1753 79.6826 42.8993 79.54 39.8575 80.5255C36.8157 81.511 34.0104 83.8829 33.4542 87.0335" fill="#E6E6E6"/>
<path d="M27.0447 95.7555C29.468 91.4646 32.2789 86.6957 37.3013 85.1715C38.6978 84.7491 40.1622 84.5978 41.6154 84.7258C42.0735 84.7653 41.9591 85.4718 41.5019 85.4324C39.0659 85.23 36.6346 85.8737 34.6173 87.2551C32.6761 88.5773 31.1646 90.4156 29.8853 92.365C29.1017 93.5591 28.3999 94.8038 27.6978 96.0469C27.4735 96.4441 26.8177 96.1574 27.0447 95.7555Z" fill="#F2F2F2"/>
<path d="M23.1618 100.272C23.2435 99.3252 23.5832 98.419 24.1439 97.6521C24.7046 96.8851 25.4649 96.2869 26.3419 95.9224V93.4418H30.4996V96.0006C31.3334 96.3829 32.051 96.9797 32.5793 97.7301C33.1075 98.4804 33.4274 99.3575 33.5065 100.272L34.4841 111.645H22.1842L23.1618 100.272Z" fill="#F2F2F2"/>
<path d="M164.558 45.9702L163.321 45.449L162.473 39.2443H151.174L150.254 45.4237L149.148 45.9773C149.095 46.0038 149.052 46.0474 149.027 46.1011C149.002 46.1547 148.996 46.2153 149.009 46.2729C149.023 46.3306 149.056 46.3819 149.102 46.4187C149.148 46.4555 149.206 46.4755 149.265 46.4755H164.456C164.517 46.4755 164.576 46.4545 164.623 46.416C164.67 46.3776 164.702 46.3241 164.714 46.2646C164.726 46.205 164.717 46.1432 164.688 46.0896C164.66 46.0359 164.614 45.9937 164.558 45.9702Z" fill="#E6E6E6"/>
<path d="M184.637 40.0698H129.134C128.842 40.0692 128.563 39.953 128.358 39.7467C128.152 39.5404 128.036 39.2608 128.036 38.9694V31.1372H185.734V38.9694C185.734 39.2608 185.619 39.5404 185.413 39.7467C185.207 39.9529 184.928 40.0692 184.637 40.0698Z" fill="#CCCCCC"/>
<path d="M185.792 34.8389H127.986V1.3265C127.986 0.974811 128.126 0.637638 128.374 0.388958C128.623 0.140277 128.96 0.000393523 129.311 0H184.467C184.818 0.000393516 185.155 0.140277 185.404 0.388958C185.652 0.637638 185.792 0.974809 185.792 1.3265L185.792 34.8389Z" fill="#3F3D56"/>
<path d="M182.34 32.4066H131.438C131.167 32.4063 130.908 32.2984 130.716 32.1067C130.524 31.915 130.417 31.6551 130.416 31.3839V3.45496C130.417 3.18382 130.524 2.92387 130.716 2.73214C130.908 2.54041 131.167 2.43256 131.438 2.43225H182.34C182.611 2.43256 182.871 2.54041 183.062 2.73214C183.254 2.92387 183.361 3.18382 183.362 3.45496V31.3839C183.361 31.6551 183.254 31.915 183.062 32.1067C182.871 32.2984 182.611 32.4063 182.34 32.4066Z" fill="white"/>
<path d="M168.933 42.2613C169.262 41.9576 169.653 41.7296 170.079 41.5935C170.505 41.4574 170.956 41.4165 171.4 41.4736C171.844 41.5307 172.269 41.6845 172.647 41.9241C173.025 42.1637 173.346 42.4833 173.587 42.8604L180.472 41.6355L182.237 45.6409L172.489 47.234C171.829 47.5974 171.059 47.7059 170.325 47.539C169.59 47.372 168.942 46.9413 168.504 46.3283C168.066 45.7154 167.867 44.9628 167.946 44.2132C168.025 43.4637 168.377 42.7692 168.933 42.2613Z" fill="#FFB6B6"/>
<path d="M175.308 47.3756L182.485 47.286L183.394 47.2737L197.997 47.0896C197.997 47.0896 201.963 43.3036 205.416 39.4057L204.932 35.9025C204.46 32.4644 202.756 29.3151 200.137 27.0406C195.191 30.3477 192.323 36.8935 192.323 36.8935L183.268 39.0607L182.362 39.2775L176.736 40.6229L175.308 47.3756Z" fill="#63D0FF"/>
<path d="M212.051 68.9078H198.653C198.653 69.4823 184.007 69.9485 184.007 69.9485C183.684 70.192 183.39 70.4713 183.129 70.7811C182.348 71.7142 181.92 72.8937 181.923 74.1115V74.9441C181.923 76.324 182.471 77.6473 183.446 78.6231C184.422 79.5989 185.744 80.1473 187.123 80.1478H212.051C213.43 80.1466 214.752 79.5979 215.727 78.6223C216.702 77.6467 217.25 76.3238 217.252 74.9441V74.1115C217.25 72.732 216.701 71.4095 215.726 70.434C214.752 69.4586 213.43 68.9097 212.051 68.9078Z" fill="#E4E4E4"/>
<path d="M202.308 79.9411H196.9V111.179H202.308V79.9411Z" fill="#E4E4E4"/>
<path d="M181.508 110.988C181.508 111.573 189.703 111.215 199.812 111.215C209.921 111.215 218.117 111.573 218.117 110.988C218.117 110.404 209.921 105.767 199.812 105.767C189.703 105.767 181.508 110.404 181.508 110.988Z" fill="#E4E4E4"/>
<path d="M177.875 107.419L173.85 107.419L171.936 91.8835L177.876 91.8837L177.875 107.419Z" fill="#FFB6B6"/>
<path d="M178.902 111.323L165.924 111.323V111.159C165.924 109.818 166.456 108.532 167.403 107.584C168.351 106.637 169.635 106.104 170.975 106.104H170.975L178.902 106.104L178.902 111.323Z" fill="#2F2E41"/>
<path d="M165.979 107.419L161.954 107.419L160.04 91.8835L165.98 91.8837L165.979 107.419Z" fill="#FFB6B6"/>
<path d="M167.006 111.323L154.028 111.323V111.159C154.028 109.818 154.56 108.532 155.507 107.584C156.455 106.637 157.739 106.104 159.079 106.104H159.079L167.006 106.104L167.006 111.323Z" fill="#2F2E41"/>
<path d="M202.033 17.9796C205.898 17.9796 209.032 14.8442 209.032 10.9765C209.032 7.10884 205.898 3.97345 202.033 3.97345C198.168 3.97345 195.035 7.10884 195.035 10.9765C195.035 14.8442 198.168 17.9796 202.033 17.9796Z" fill="#FFB6B6"/>
<path d="M213.36 58.9591C213.36 58.9591 215.708 71.3842 206.774 72.9664C197.84 74.5487 184.943 75.6607 184.943 75.6607L179.151 102.7L171.371 102.005C171.371 102.005 172.406 69.4555 174.95 66.9089C177.495 64.3623 193.579 56.7373 193.579 56.7373L213.36 58.9591Z" fill="#2F2E41"/>
<path d="M195.911 53.7516L192.003 57.6742C192.003 57.6742 163.79 62.2219 162.701 68.7428C161.058 78.5879 159.117 99.9968 159.117 99.9968L167.6 99.3601L170.926 75.024L184.499 71.9346L199.94 63.5135L195.911 53.7516Z" fill="#2F2E41"/>
<path d="M208.768 6.79628C208.077 5.49196 207.199 2.89248 205.805 2.41037C205.03 2.15343 204.23 1.98282 203.418 1.90164L201.048 2.81382L202.338 1.80991C202.087 1.79494 201.836 1.7827 201.585 1.7732L199.986 2.38865L200.804 1.7519C199.313 1.73659 197.775 1.89171 196.619 2.79989C195.635 3.57411 194.659 6.50702 194.501 7.75022C194.333 8.93952 194.392 10.1501 194.675 11.3173L195.08 11.7026C195.222 11.3776 195.328 11.0383 195.398 10.6906C195.543 10.0409 195.822 9.42859 196.217 8.89269C196.611 8.3568 197.113 7.90908 197.691 7.57806L197.713 7.56562C198.392 7.18309 199.216 7.20072 199.995 7.22877L203.694 7.36198C204.584 7.39403 205.542 7.45039 206.236 8.00905C206.677 8.42116 207.024 8.92381 207.253 9.48256C207.597 10.1789 208.271 12.8054 208.271 12.8054C208.271 12.8054 208.652 12.3096 208.835 12.6786C209.128 11.7159 209.306 10.7218 209.366 9.71713C209.424 8.708 209.218 7.70114 208.768 6.79628Z" fill="#2F2E41"/>
<path d="M233.244 14.052C232.798 14.0814 232.363 14.2084 231.971 14.4241C231.579 14.6397 231.239 14.9388 230.975 15.3001C230.711 15.6615 230.529 16.0765 230.443 16.5157C230.356 16.9549 230.367 17.4078 230.475 17.8424L224.847 21.9965L226.535 26.0345L234.4 20.0564C235.118 19.8276 235.727 19.3432 236.112 18.6952C236.496 18.0471 236.63 17.2804 236.487 16.5403C236.345 15.8002 235.936 15.1381 235.338 14.6795C234.741 14.2208 233.995 13.9976 233.244 14.052Z" fill="#FFB6B6"/>
<path d="M232.338 22.5326L218.231 38.2119C218.231 38.2119 211.484 36.0506 206.266 33.7074L203.922 26.503C203.378 24.8316 203.146 23.0743 203.237 21.3188C210.47 19.3927 218.883 26.5594 218.883 26.5594L229.444 18.2817L232.338 22.5326Z" fill="#63D0FF"/>
<path d="M199.419 60.1171C196.902 59.247 194.3 58.3474 191.493 58.0096L191.372 57.9951L191.405 57.8783C194.311 47.6676 193.586 41.136 192.162 31.3246C191.859 29.2083 192.248 27.0507 193.271 25.1739C194.294 23.297 195.897 21.8016 197.839 20.9108L197.856 20.903L205.874 20.3932L205.892 20.3921L211.723 22.1083C212.562 22.357 213.296 22.8741 213.813 23.5803C214.33 24.2865 214.602 25.1429 214.586 26.0182C214.523 29.2449 214.657 32.8474 214.799 36.6613C215.117 45.2176 215.446 54.0653 213.579 59.8059L213.569 59.836L213.544 59.8555C211.828 61.2545 209.677 62.0104 207.464 61.9929C204.846 61.9929 202.175 61.0697 199.419 60.1171Z" fill="#63D0FF"/>
<path d="M257.627 112H0.372833C0.273952 112 0.179121 111.961 0.109202 111.891C0.0392823 111.821 0 111.726 0 111.627C0 111.528 0.0392823 111.433 0.109202 111.363C0.179121 111.293 0.273952 111.254 0.372833 111.254H257.627C257.726 111.254 257.821 111.293 257.891 111.363C257.961 111.433 258 111.528 258 111.627C258 111.726 257.961 111.821 257.891 111.891C257.821 111.961 257.726 112 257.627 112Z" fill="#CCCCCC"/>
</g>
<defs>
<clipPath id="clip0_9_351">
<rect width="258" height="112" fill="white"/>
</clipPath>
</defs>
</svg>
