<svg width="258" height="112" viewBox="0 0 258 112" fill="none" xmlns="http://www.w3.org/2000/svg">
<g clip-path="url(#clip0_23_140)">
<path d="M215.348 106.105H205.87V112H215.348V106.105Z" fill="#F0F0F0"/>
<path d="M258 49.5158C258.004 58.4044 254.613 67.1299 248.183 74.7762C241.753 82.4225 232.521 88.7076 221.456 92.9718C220.829 93.2135 220.193 93.4493 219.555 93.6772C217.187 94.528 214.751 95.2812 212.259 95.9329C211.267 96.1962 210.264 96.4412 209.251 96.6678C209.154 96.6914 209.053 96.715 208.956 96.7346C199.036 98.9544 188.54 99.5899 178.228 98.5947C167.917 97.5996 158.049 94.9989 149.341 90.9813C148.173 90.443 147.029 89.881 145.909 89.2954C145.276 88.9634 144.652 88.6254 144.036 88.2776C142.293 87.303 140.621 86.2701 139.018 85.179C132.203 80.5652 126.784 75.0271 123.085 68.8981C119.387 62.7691 117.487 56.176 117.5 49.5158C117.5 22.1681 148.95 0 187.75 0C226.549 0 258 22.1681 258 49.5158Z" fill="#F2F2F2"/>
<path d="M204.526 72.6232L202.943 76.8438L208.956 96.7346C192.792 100.323 175.337 99.6905 159.781 94.9524L164.475 81.0782L164.631 73.5526L165.141 48.7377L165.27 48.6905C165.277 48.6871 165.286 48.6845 165.295 48.6827L177.254 44.354L197.889 43.9905L213.285 49.2761L213.168 49.5846L204.526 72.6232Z" fill="#3F3D56"/>
<path d="M212.963 108.884C212.489 108.487 212.145 108.021 211.954 107.519C211.763 107.018 211.731 106.493 211.859 105.981C211.987 105.47 212.273 104.985 212.696 104.56C213.119 104.135 213.67 103.78 214.308 103.521L210.959 91.1211L219.549 93.6443L221.413 105.033C221.959 105.818 222.077 106.717 221.746 107.559C221.415 108.402 220.657 109.129 219.615 109.604C218.573 110.079 217.321 110.268 216.095 110.135C214.869 110.002 213.755 109.557 212.963 108.884Z" fill="#9E616A"/>
<path d="M210.181 49.6619L212.386 49.1564C212.386 49.1564 219.377 52.3192 218.712 59.9658C218.712 59.9658 218.974 63.9226 218.724 66.556C218.437 69.5765 222.284 99.5917 222.284 99.5917H209.825L204.485 72.4105L210.181 49.6619Z" fill="#3F3D56"/>
<path d="M202.955 30.4227C202.955 32.4168 202.116 34.3661 200.544 36.0241C198.972 37.6821 196.738 38.9743 194.125 39.7374C191.511 40.5005 188.635 40.7002 185.86 40.3111C183.086 39.9221 180.537 38.9619 178.536 37.5519C176.536 36.1419 175.174 34.3454 174.622 32.3896C174.07 30.4339 174.353 28.4067 175.436 26.5644C176.518 24.7222 178.352 23.1475 180.704 22.0397C183.056 20.9319 185.822 20.3405 188.651 20.3405C190.525 20.3372 192.381 20.5941 194.114 21.0965C195.847 21.5988 197.422 22.3369 198.751 23.2684C200.079 24.2 201.134 25.3068 201.855 26.5257C202.576 27.7446 202.95 29.0518 202.955 30.3725C202.955 30.3892 202.955 30.406 202.955 30.4227Z" fill="#9E616A"/>
<path d="M174.394 16.8805C176.07 14.3408 179.313 14.8429 182.149 15.7038C185.74 15.1423 189.156 13.4613 193.025 14.4554C196.836 18.3629 209.634 17.2133 206.911 23.5746C206.907 25.099 210.98 24.2117 210.269 26.7082C212.427 31.5126 202.481 40.6116 196.772 38.6955C198.184 36.8714 201.41 32.7283 196.517 32.3174C185.993 39.2196 195.431 19.174 182.208 25.0036C177.829 27.8279 171.835 19.7055 174.394 16.8805Z" fill="#2F2E41"/>
<path d="M196.283 97.7553L173.45 94.5678L179.305 73.732C187.384 75.8858 194.995 76.9483 202.138 76.9195C195.896 83.3725 193.06 90.3014 196.283 97.7553Z" fill="#E4E4E4"/>
<path d="M192.963 98.9792L170.13 95.7917C168.256 86.3524 169.96 79.2455 175.985 74.9559C184.064 77.1097 191.675 78.1722 198.818 78.1434C195.044 84.7714 193.059 91.8377 192.963 98.9792Z" fill="#63D0FF"/>
<path d="M177.835 93.1752C177.745 92.6599 177.495 92.1648 177.103 91.7248C176.712 91.2849 176.189 90.9107 175.57 90.6288C174.951 90.3468 174.253 90.1639 173.523 90.0929C172.793 90.022 172.05 90.0646 171.346 90.2179L160.742 80.0461L157.515 86.1985L168.08 94.9147C168.523 95.7311 169.377 96.4043 170.478 96.8069C171.579 97.2096 172.851 97.3135 174.053 97.0991C175.256 96.8847 176.305 96.3668 177.002 95.6436C177.699 94.9204 177.995 94.0422 177.835 93.1752Z" fill="#9E616A"/>
<path d="M168.327 49.2743L166.406 48.3599C166.406 48.3599 154.977 49.11 152.625 56.5895C152.625 56.5895 150.905 61.0832 150.116 63.6632C149.709 64.9901 144.293 77.8106 144.293 77.8106L162.66 91.9579L167.678 86.6526L162.66 77.8105L168.327 49.2743Z" fill="#3F3D56"/>
<path d="M9.47821 24.8599H0V30.7547H9.47821V24.8599Z" fill="#63D0FF"/>
<path d="M29.8285 48.4388H20.3503V54.3336H29.8285V48.4388Z" fill="#63D0FF"/>
<path d="M44.6033 88.7195H35.1251V94.6143H44.6033V88.7195Z" fill="#63D0FF"/>
<path d="M35.1939 11.3275C34.913 11.3275 34.6435 11.4062 34.4449 11.5462C34.2462 11.6862 34.1346 11.8762 34.1346 12.0742C34.1346 12.2722 34.2462 12.4622 34.4449 12.6022C34.6435 12.7422 34.913 12.8209 35.1939 12.8209H112.54C112.82 12.8204 113.089 12.7416 113.287 12.6016C113.485 12.4616 113.597 12.2719 113.597 12.0742C113.597 11.8765 113.485 11.6868 113.287 11.5468C113.089 11.4068 112.82 11.328 112.54 11.3275H35.1939Z" fill="#E4E4E4"/>
<path d="M35.194 15.8076C35.0548 15.8073 34.9168 15.8264 34.7881 15.8637C34.6593 15.901 34.5423 15.9558 34.4436 16.025C34.3449 16.0942 34.2666 16.1764 34.213 16.267C34.1594 16.3575 34.1317 16.4546 34.1314 16.5527C34.1311 16.6508 34.1583 16.748 34.2113 16.8388C34.2643 16.9295 34.3422 17.0119 34.4405 17.0814C34.5387 17.1509 34.6555 17.2061 34.784 17.2438C34.9125 17.2814 35.0503 17.3009 35.1895 17.301H84.0882C84.3692 17.301 84.6386 17.2223 84.8373 17.0823C85.036 16.9423 85.1476 16.7523 85.1476 16.5543C85.1476 16.3563 85.036 16.1664 84.8373 16.0263C84.6386 15.8863 84.3692 15.8076 84.0882 15.8076H35.194Z" fill="#E4E4E4"/>
<path d="M25.1582 64.9696C24.8772 64.9696 24.6078 65.0483 24.4091 65.1883C24.2104 65.3283 24.0988 65.5183 24.0988 65.7163C24.0988 65.9143 24.2104 66.1043 24.4091 66.2443C24.6078 66.3843 24.8772 66.463 25.1582 66.463H102.504C102.784 66.4625 103.053 66.3837 103.251 66.2437C103.449 66.1037 103.561 65.914 103.561 65.7163C103.561 65.5186 103.449 65.3289 103.251 65.1889C103.053 65.0489 102.784 64.9701 102.504 64.9696H25.1582Z" fill="#E4E4E4"/>
<path d="M25.1582 69.4497C25.019 69.4494 24.8811 69.4685 24.7523 69.5058C24.6236 69.543 24.5065 69.5979 24.4078 69.6671C24.3092 69.7363 24.2308 69.8185 24.1772 69.909C24.1237 69.9996 24.0959 70.0967 24.0956 70.1948C24.0954 70.2929 24.1225 70.3901 24.1755 70.4808C24.2285 70.5716 24.3064 70.654 24.4047 70.7235C24.503 70.793 24.6197 70.8482 24.7482 70.8858C24.8767 70.9235 25.0145 70.943 25.1537 70.9431H74.0525C74.3334 70.9431 74.6029 70.8644 74.8015 70.7244C75.0002 70.5844 75.1118 70.3944 75.1118 70.1964C75.1118 69.9984 75.0002 69.8084 74.8015 69.6684C74.6029 69.5284 74.3334 69.4497 74.0525 69.4497H25.1582Z" fill="#E4E4E4"/>
<path d="M69.204 103.285C68.9231 103.285 68.6536 103.364 68.4549 103.504C68.2563 103.644 68.1447 103.834 68.1447 104.032C68.1447 104.23 68.2563 104.42 68.4549 104.56C68.6536 104.7 68.9231 104.779 69.204 104.779H146.55C146.83 104.778 147.099 104.699 147.297 104.559C147.495 104.419 147.607 104.23 147.607 104.032C147.607 103.834 147.495 103.645 147.297 103.505C147.099 103.365 146.83 103.286 146.55 103.285H69.204Z" fill="#E4E4E4"/>
<path d="M69.204 107.766C69.0648 107.765 68.9269 107.784 68.7981 107.822C68.6694 107.859 68.5523 107.914 68.4536 107.983C68.3549 108.052 68.2766 108.134 68.223 108.225C68.1694 108.315 68.1417 108.413 68.1414 108.511C68.1411 108.609 68.1683 108.706 68.2213 108.797C68.2743 108.887 68.3522 108.97 68.4505 109.039C68.5487 109.109 68.6655 109.164 68.794 109.202C68.9225 109.239 69.0603 109.259 69.1995 109.259H118.098C118.379 109.259 118.649 109.18 118.847 109.04C119.046 108.9 119.158 108.71 119.158 108.512C119.158 108.314 119.046 108.124 118.847 107.984C118.649 107.844 118.379 107.766 118.098 107.766H69.204Z" fill="#E4E4E4"/>
<path d="M4.45703 27.8339C6.72769 27.4824 8.87573 26.8145 10.7748 25.8694C12.6739 24.9243 14.2858 23.7211 15.5155 22.3305C16.2137 21.5399 16.7764 20.6937 17.1918 19.8097C17.2232 19.7365 17.2131 19.6576 17.1635 19.5895C17.114 19.5215 17.0289 19.4697 16.9262 19.4451C16.8235 19.4204 16.7112 19.4248 16.6131 19.4574C16.5149 19.4899 16.4385 19.5481 16.4 19.6196C15.6871 21.0971 14.562 22.4592 13.0909 23.6255C11.6197 24.7918 9.83235 25.7389 7.83397 26.4109C6.70794 26.7901 5.52181 27.0734 4.30066 27.2548C3.77391 27.3331 3.92917 27.9124 4.45703 27.8339Z" fill="#3F3D56"/>
<path d="M12.6053 20.9386C14.1129 20.3401 15.6204 19.7417 17.1279 19.1433C17.1978 19.1157 17.3933 19.0113 17.4663 19.0238C17.4078 19.0138 17.4609 19.0444 17.4627 19.0817C17.465 19.132 17.474 19.183 17.4767 19.2336C17.493 19.5439 17.501 19.8545 17.5132 20.1649L17.5833 21.9501C17.5981 22.3258 18.4327 22.3705 18.4178 21.9903L18.3355 19.8947C18.3167 19.4145 18.4871 18.3493 17.3831 18.4413C16.9848 18.4746 16.6164 18.6713 16.2767 18.8062L14.9002 19.3525L12.2456 20.4063C11.7782 20.5918 12.1359 21.1249 12.6053 20.9386Z" fill="#3F3D56"/>
<path d="M25.1751 51.3654C22.9275 51.7812 20.8205 52.5095 18.9779 53.5074C17.1353 54.5053 15.5942 55.7528 14.4454 57.1764C13.7931 57.9857 13.2795 58.8466 12.9153 59.7411C12.8901 59.8155 12.9068 59.8939 12.962 59.9597C13.0172 60.0255 13.1065 60.0737 13.2111 60.094C13.3157 60.1144 13.4274 60.1053 13.5226 60.0687C13.6179 60.0321 13.6893 59.9708 13.7217 59.8978C14.3528 58.4008 15.4027 57.008 16.8095 55.8015C18.2163 54.5949 19.9515 53.5991 21.9128 52.8726C23.0173 52.4632 24.1871 52.148 25.3975 51.9338C25.919 51.841 25.698 51.2724 25.1751 51.3654Z" fill="#3F3D56"/>
<path d="M17.4206 58.4861L13.0503 60.3853C12.9754 60.4178 12.9018 60.4533 12.8239 60.4823C12.7465 60.511 12.6669 60.5101 12.7169 60.5447C12.6495 60.498 12.6667 60.3249 12.6616 60.272L12.5765 59.3811L12.4062 57.5993C12.3703 57.2229 11.5337 57.22 11.5699 57.5993L11.7698 59.691C11.8153 60.1673 11.6894 61.153 12.7239 61.1131C13.1845 61.0954 13.6233 60.8287 14.0007 60.6647L15.2494 60.1221L17.8427 58.9951C18.3 58.7964 17.8805 58.2863 17.4206 58.4861Z" fill="#3F3D56"/>
<path d="M39.5561 91.4286C41.6995 91.8241 43.7089 92.5181 45.4659 93.4696C47.2228 94.421 48.6918 95.6108 49.7861 96.9688C50.403 97.7333 50.8884 98.547 51.2319 99.3926C51.2643 99.4656 51.3357 99.5268 51.431 99.5634C51.5262 99.6 51.6379 99.6091 51.7425 99.5888C51.847 99.5685 51.9363 99.5203 51.9915 99.4545C52.0467 99.3887 52.0635 99.3103 52.0383 99.2359C51.3786 97.6655 50.2801 96.2038 48.8074 94.9368C47.3348 93.6699 45.5176 92.6232 43.4629 91.8584C42.2951 91.424 41.0583 91.089 39.7784 90.8602C39.2564 90.7673 39.0337 91.3357 39.5561 91.4286Z" fill="#3F3D56"/>
<path d="M47.1109 98.4898L49.7042 99.6168L50.9529 100.159C51.3313 100.324 51.7684 100.59 52.2297 100.608C53.2639 100.648 53.1383 99.6621 53.1838 99.1857L53.3836 97.094C53.4198 96.7153 52.5834 96.7169 52.5473 97.094L52.3771 98.8758L52.2957 99.728C52.2894 99.7932 52.3136 99.9852 52.2367 100.039C52.2916 100.001 52.2343 100.019 52.173 99.9929C52.0837 99.9547 51.9923 99.9186 51.9032 99.88L47.533 97.9808C47.0736 97.7812 46.6531 98.2909 47.1109 98.4898Z" fill="#3F3D56"/>
<path d="M18.9564 16.8038C21.1119 16.8038 22.8592 15.5721 22.8592 14.0529C22.8592 12.5336 21.1119 11.302 18.9564 11.302C16.801 11.302 15.0536 12.5336 15.0536 14.0529C15.0536 15.5721 16.801 16.8038 18.9564 16.8038Z" fill="#63D0FF"/>
<path d="M12.2659 70.7072C14.4213 70.7072 16.1687 69.4756 16.1687 67.9563C16.1687 66.4371 14.4213 65.2054 12.2659 65.2054C10.1104 65.2054 8.3631 66.4371 8.3631 67.9563C8.3631 69.4756 10.1104 70.7072 12.2659 70.7072Z" fill="#63D0FF"/>
<path d="M54.3603 108.958C56.5158 108.958 58.2631 107.727 58.2631 106.207C58.2631 104.688 56.5158 103.456 54.3603 103.456C52.2049 103.456 50.4575 104.688 50.4575 106.207C50.4575 107.727 52.2049 108.958 54.3603 108.958Z" fill="#63D0FF"/>
</g>
<defs>
<clipPath id="clip0_23_140">
<rect width="258" height="112" fill="white"/>
</clipPath>
</defs>
</svg>
