<svg width="229" height="209" viewBox="0 0 229 209" fill="none" xmlns="http://www.w3.org/2000/svg">
<g clip-path="url(#clip0_3_32)">
<path d="M147.098 13.0617C147.102 16.3523 146.101 19.5226 144.295 21.9334C144.158 22.1185 144.014 22.2975 143.867 22.4704C138.426 17.2759 132.72 12.5237 126.784 8.24362C126.858 8.01303 126.936 7.78547 127.022 7.56095C128.032 4.86365 129.754 2.67479 131.903 1.35637C134.052 0.037959 136.5 -0.331032 138.841 0.310428C141.182 0.951888 143.276 2.56537 144.778 4.88403C146.279 7.20269 147.098 10.0876 147.098 13.0617Z" fill="#F2F2F2"/>
<path d="M155.637 39.6403L155.627 39.7769C148.703 39.1852 141.779 38.5925 134.856 37.9989C129.854 37.5711 124.678 37.0856 120.259 34.1486C118.581 33.0351 116.947 31.5484 115.044 31.4453C112.684 31.3148 110.624 33.3628 109.005 35.4988C99.4339 48.1448 96.6626 67.481 85.9249 78.5888C92.6972 57.8724 100.783 37.8546 110.106 18.7234C111.827 15.1887 113.87 11.4143 117.067 10.2614C120.117 9.15998 123.238 10.768 126.046 12.8312C126.647 13.2742 127.235 13.7384 127.802 14.1996C132.129 17.713 136.385 21.361 140.57 25.1435C145.709 29.7826 150.731 34.6149 155.637 39.6403Z" fill="#F2F2F2"/>
<path d="M178.032 66.4616C170.631 53.5025 162.032 41.6628 152.411 31.1843C149.644 28.1685 146.796 25.2638 143.867 22.4705C138.426 17.2759 132.72 12.5237 126.784 8.24368C124.837 6.84194 122.868 5.49583 120.875 4.20533C119.327 3.20712 117.678 2.29386 115.893 2.43646C114.643 2.5689 113.45 3.13807 112.451 4.0779C110.257 6.06522 108.804 9.16908 107.608 12.1273C106.561 14.7214 105.585 17.3672 104.59 19.9977C104.167 21.1173 103.744 22.2338 103.306 23.3443C101.78 27.234 100.217 31.1024 98.6194 34.9496C96.5599 39.9073 94.4409 44.8276 92.2624 49.7104C87.686 59.9747 82.8569 70.0539 77.7751 79.948C70.3051 94.4904 62.3134 108.592 53.7999 122.252C52.7555 123.924 52.325 124.312 51.2659 125.972C51.0213 126.36 50.5859 125.814 50.8281 125.429C59.6604 111.581 67.3505 98.4984 75.1041 83.686C80.9499 72.5176 86.4745 61.1013 91.6778 49.4373C93.3484 45.6963 94.9839 41.9321 96.5844 38.1445C99.1746 32.0126 101.675 25.8231 104.086 19.5759C104.722 17.9315 105.351 16.2809 105.974 14.6243C107.953 9.36628 110.834 1.54746 116.399 1.65365C118.035 1.68401 119.554 2.50623 120.988 3.41645C122.448 4.34792 123.881 5.33702 125.312 6.3413C125.884 6.74179 126.454 7.14836 127.022 7.561C129.27 9.18119 131.484 10.8691 133.665 12.6249C137.304 15.5527 140.848 18.6556 144.295 21.9334C145.931 23.4899 147.543 25.0818 149.131 26.7091C159.091 36.9312 168.047 48.5722 175.813 61.3916C176.75 62.9359 177.667 64.4975 178.565 66.0762C178.795 66.4798 178.259 66.862 178.032 66.4616Z" fill="#E4E4E4"/>
<path d="M152.961 27.3226C153.285 26.8756 153.606 26.4285 153.932 25.9814C156.498 22.4608 159.251 18.9812 162.775 16.9628C164.456 15.9701 166.29 15.4427 168.151 15.4172C170.071 15.4826 171.964 15.9947 173.732 16.9271C174.573 17.3435 175.394 17.8162 176.204 18.3194C177.129 18.8968 178.037 19.5126 178.941 20.1334C180.638 21.2984 182.313 22.5145 183.966 23.7817C187.256 26.3033 190.442 29.0173 193.525 31.9239C195.123 33.4312 196.689 34.988 198.221 36.5941C199.646 38.0861 201.043 39.6181 202.41 41.1902C202.703 41.5249 203.139 40.9833 202.847 40.6486C202.486 40.2321 202.122 39.8183 201.757 39.4095C200.727 38.2547 199.681 37.1221 198.618 36.0116C196.68 33.9831 194.692 32.0329 192.654 30.161C189.484 27.2486 186.205 24.5336 182.817 22.0163C181.124 20.7593 179.408 19.5551 177.668 18.4038C177.143 18.0563 176.612 17.7165 176.074 17.3946C174.854 16.6315 173.587 15.9915 172.285 15.4811C170.439 14.7406 168.487 14.5027 166.561 14.7836C164.701 15.1192 162.909 15.888 161.28 17.0497C157.82 19.4487 155.136 23.1583 152.525 26.7785C152.261 27.1464 152.696 27.6905 152.961 27.3226Z" fill="#E4E4E4"/>
<path d="M82.0657 63.8048L73.7745 60.0431L69.6579 58.1753C68.3279 57.5111 66.9714 56.9316 65.5937 56.439C64.3893 56.0122 63.1104 56.0325 61.9151 56.4972C60.8492 56.9866 59.8734 57.7369 59.0459 58.7034C58.2005 59.6691 57.4139 60.7112 56.6926 61.8209C55.7963 63.157 54.9133 64.5072 54.0263 65.8528C50.3655 71.4062 46.7287 76.9838 43.1158 82.5855C39.503 88.1871 35.9143 93.8125 32.3498 99.4617C28.7766 105.125 25.228 110.811 21.7039 116.522C21.2722 117.221 20.8409 117.921 20.4099 118.621C20.1718 119.008 19.6349 118.627 19.8764 118.235C23.4265 112.467 27.0013 106.723 30.6008 101.002C34.2092 95.2678 37.8426 89.5579 41.5008 83.8723C45.159 78.1868 48.842 72.526 52.5496 66.8898C53.4733 65.4856 54.3985 64.083 55.3252 62.682C56.107 61.5002 56.8799 60.3056 57.7373 59.2056C59.3112 57.1864 61.2775 55.4021 63.6313 55.3537C65.0152 55.3252 66.3545 55.8699 67.6402 56.4469C69.0264 57.0689 70.4092 57.7026 71.7935 58.3307L80.1427 62.1187L82.23 63.0657C82.6004 63.2338 82.4404 63.9748 82.0657 63.8048Z" fill="#E4E4E4"/>
<path d="M163.866 21.3928C168.08 18.7066 173.476 19.2327 177.348 22.5887C169.962 24.1692 162.658 26.2839 155.472 28.9221C158.456 26.7528 160.79 23.354 163.866 21.3928Z" fill="#F2F2F2"/>
<path d="M177.389 22.5794L178.2 23.3973C177.926 23.111 177.641 22.8426 177.348 22.5887C177.361 22.5857 177.375 22.5824 177.389 22.5794Z" fill="#F2F2F2"/>
<path d="M59.3581 63.8424C60.1743 62.61 61.0567 61.3196 62.2775 60.8191L63.4172 60.8748C54.7411 79.8922 43.0233 96.5094 28.9832 109.707C39.1082 94.4185 49.2331 79.1305 59.3581 63.8424Z" fill="#F2F2F2"/>
<path d="M156.219 67.7412C155.498 70.48 153.93 72.7516 151.859 74.0565C149.788 75.3614 147.384 75.5928 145.176 74.6999C144.926 74.5987 144.681 74.484 144.442 74.3558C142.432 73.2873 140.818 71.3249 139.915 68.8543C139.013 66.3838 138.889 63.5839 139.566 61.0053C139.781 60.1842 140.075 59.3982 140.442 58.6644C141.568 56.4029 143.323 54.7318 145.375 53.9675C147.427 53.2033 149.634 53.3988 151.578 54.5171C153.522 55.6355 155.068 57.599 155.923 60.036C156.778 62.473 156.883 65.2144 156.219 67.7412Z" fill="#A0616A"/>
<path d="M139.622 61.5492C140.836 62.2911 142.211 61.2159 143.273 60.1466L142.893 60.5454C144.736 62.8159 145.579 66.0594 145.978 69.2468C146.378 72.4309 146.398 75.6821 146.908 78.845C147.418 82.0046 148.505 85.1864 150.567 87.1439C153.33 89.7658 157.172 89.6488 160.595 88.8995C160.641 88.8886 160.684 88.8805 160.729 88.8696C159.837 85.5649 159.492 82.0708 159.715 78.5967C160.603 82.0923 162.135 85.2825 164.192 87.9131C166.464 87.1687 168.684 86.1974 170.829 85.0087C172.218 84.2374 173.714 83.1776 174.113 81.356C174.513 79.5482 173.636 77.6354 172.451 76.4755C171.267 75.3157 169.807 74.6998 168.454 73.867C167.103 73.038 165.769 71.8637 165.239 70.1098C164.019 66.0751 167.629 61.5093 166.27 57.5411C165.599 55.5898 163.927 54.5117 162.353 53.6769C159.951 52.4058 157.482 51.3376 154.963 50.4796C152.753 49.7259 150.442 49.1327 148.18 49.5794C145.918 50.0261 143.691 51.7017 142.856 54.3518C141.496 54.903 140.05 55.5255 139.168 56.9304C138.287 58.332 138.337 60.7649 139.622 61.5492Z" fill="#2F2E41"/>
<path d="M90.3079 144.532C97.6503 143.304 104.961 146.607 112.354 147.204C119.711 147.798 127.153 145.501 133.545 140.958C138.065 137.745 143.615 138.223 147.929 141.843C148.038 141.934 148.148 142.022 148.259 142.107C151.822 144.812 156.223 144.995 160.4 145.101L201.619 146.141C201.619 146.141 211.506 149.048 212.931 155.174C214.356 161.299 211.198 167.93 206.835 171.298C202.471 174.666 197.177 175.5 192.063 176.136C159.177 180.219 126.014 179.377 93.2905 173.629C87.2245 172.563 80.1094 170.287 78.0418 163.133C75.5414 154.482 82.9656 145.761 90.3079 144.532Z" fill="#CCCCCC"/>
<path d="M182.885 156.665L156.999 152.814C154.584 152.455 152.383 150.921 150.881 148.549C149.378 146.176 148.696 143.161 148.986 140.166C149.276 137.17 150.513 134.44 152.425 132.576C154.337 130.712 156.768 129.867 159.183 130.226L185.069 134.077C187.483 134.438 189.682 135.973 191.184 138.345C192.686 140.716 193.367 143.731 193.077 146.725C192.788 149.72 191.552 152.449 189.64 154.313C187.729 156.177 185.299 157.023 182.885 156.665Z" fill="#2F2E41"/>
<path d="M177.81 75.9119L181.604 80.477L186.454 83.1457C186.454 83.1457 185.023 119.779 186.674 122.385C188.325 124.991 186.627 124.801 186.712 127.88C186.797 130.959 187.114 137.291 187.114 137.291C173.648 143.721 162.711 142.32 154.884 131.287C154.83 130.669 154.948 130.046 155.219 129.522C155.489 128.998 155.896 128.605 156.371 128.407C158.107 127.576 155.456 122.096 156.87 121.456C158.285 120.816 157.112 113.266 157.112 113.266L159.809 98.2785L159.072 95.7088L162.879 81.223L167.176 79.9706L169.295 75.3006L177.81 75.9119Z" fill="#63D0FF"/>
<path d="M127.081 110.385C127.493 109.966 127.974 109.664 128.491 109.5C129.007 109.337 129.546 109.316 130.07 109.439C130.593 109.561 131.089 109.825 131.522 110.211C131.954 110.597 132.313 111.096 132.574 111.673L145.328 108.855L142.665 116.525L130.961 118.025C130.151 118.503 129.228 118.596 128.366 118.286C127.504 117.976 126.764 117.285 126.286 116.343C125.807 115.401 125.624 114.275 125.771 113.177C125.917 112.079 126.383 111.085 127.081 110.385Z" fill="#FFB6B6"/>
<path d="M135.374 118.111L158.748 115.832L158.795 115.722C158.848 115.597 162.047 108.081 164.884 101.047C165.321 99.9637 165.749 98.8918 166.156 97.8601C166.332 97.4149 166.503 96.9779 166.67 96.5491C167.796 93.6565 168.693 91.2111 169.044 89.9265C169.855 87.0515 169.849 83.9189 169.026 81.0489L169.003 80.9795L168.95 80.9418C167.873 80.1765 166.617 79.8895 165.391 80.1281C164.164 80.3667 163.04 81.1166 162.203 82.2542C158.187 87.7732 155.259 94.3748 153.652 101.538L152.741 105.614L136.018 110.26L135.374 118.111Z" fill="#63D0FF"/>
<path d="M92.2593 194.239L88.5574 192.043L93.6426 172.849L99.1063 176.09L92.2593 194.239Z" fill="#A0616A"/>
<path d="M117.078 191.145C116.809 191.354 116.539 191.56 116.268 191.766C115.726 192.177 115.18 192.582 114.633 192.98C114.359 193.179 114.081 193.378 113.807 193.574V193.584L113.79 193.587L113.785 193.59L113.366 193.719L112.765 191.749L112.488 190.841L112.096 189.556L111.378 187.205L107.599 174.826L113.475 173.028L113.695 174.145H113.698L113.807 174.698L115.86 185.026L116.278 187.138L116.292 187.202L116.545 188.463L116.762 189.556L117.004 190.777L117.078 191.145Z" fill="#A0616A"/>
<path d="M152.132 147.672C151.759 148.415 151.379 149.153 150.995 149.885C150.283 151.248 149.551 152.59 148.801 153.913C148.801 153.916 148.798 153.916 148.795 153.919C148.357 154.422 147.874 154.861 147.354 155.225C147.332 155.245 147.308 155.258 147.286 155.275C146.904 155.538 146.496 155.74 146.073 155.879C145.921 155.926 145.766 155.974 145.614 156.021C145.065 156.183 144.521 156.321 143.98 156.442C143.017 156.655 142.065 156.807 141.119 156.901C141.043 156.911 140.967 156.918 140.891 156.925C136.999 157.279 133.212 156.709 129.258 155.775C127.305 155.316 125.312 154.766 123.248 154.196C122.574 154.007 121.897 153.822 121.212 153.636C121.16 153.622 121.106 153.606 121.051 153.592C120.072 153.326 119.077 153.063 118.057 152.803C116.774 152.476 115.45 152.159 114.074 151.858L114.172 154.263C114.253 156.113 114.563 157.937 115.091 159.67C115.678 161.802 116.143 163.489 115.161 167L114.688 168.7C114.934 169.544 115.018 170.447 114.934 171.339C114.851 172.23 114.602 173.085 114.207 173.837L114.112 174.016L118.057 186.398L118.313 187.201H116.293L113.807 187.205H109.595L103.518 172.08L103.227 171.358V171.321L103.855 142.255C103.863 141.999 103.879 141.739 103.907 141.483C104.017 140.317 104.314 139.191 104.78 138.17C105.245 137.148 105.87 136.252 106.618 135.533C107.334 134.838 108.155 134.327 109.032 134.03C109.909 133.732 110.825 133.654 111.727 133.799L113.807 134.133L118.057 134.814L121.051 135.297L121.111 135.307L129.94 136.724L130.574 133.519L130.691 133.465L134.408 131.775L147.264 125.93L147.297 125.916L148.143 125.532L148.243 125.734C148.273 125.795 148.303 125.856 148.33 125.916C149.166 127.775 149.847 129.735 150.362 131.765C151.227 135.082 151.94 138.457 152.496 141.874C152.521 142.023 152.542 142.158 152.561 142.279L152.57 142.316C152.578 142.373 152.583 142.41 152.586 142.421C152.882 143.952 152.676 145.821 152.132 147.672Z" fill="#2F2E41"/>
<path d="M152.674 136.961C152.634 136.745 152.582 136.526 152.528 136.313C152.096 134.704 151.593 133.125 151.021 131.584C150.379 129.83 149.61 127.952 148.694 125.918C148.25 124.933 147.774 123.908 147.263 122.845C147.008 122.312 146.742 121.769 146.467 121.216C146.456 121.19 146.444 121.165 146.431 121.141L146.352 120.979L133.632 123.091L128.895 123.877L128.612 126.805L128.544 127.53C128.541 127.53 128.541 127.53 128.544 127.533L128.354 129.51V129.513L128.101 132.124L128.079 132.121L121.05 130.991L113.806 129.827L109.915 129.203C109.013 129.057 108.097 129.135 107.22 129.433C106.343 129.731 105.522 130.242 104.805 130.937C104.058 131.656 103.433 132.552 102.968 133.574C102.502 134.595 102.205 135.721 102.094 136.887C102.07 137.123 102.054 137.366 102.045 137.605L98.3745 148.396C96.1779 154.849 94.7789 161.676 94.225 168.647L91.533 179.323L91.9164 179.367L97.6213 180.025L99.1277 180.2L102.445 174.193C102.823 173.508 103.182 172.803 103.517 172.081C104.067 170.902 104.557 169.681 104.982 168.425L112.158 147.242C112.713 147.36 113.262 147.472 113.806 147.579C116.321 148.085 118.736 148.498 121.05 148.817C128.574 149.859 135.089 149.94 140.889 149.057C142.518 148.81 144.093 148.487 145.613 148.085C146.17 147.94 146.72 147.784 147.263 147.616C147.391 147.579 147.516 147.542 147.641 147.502C148.765 147.142 149.798 146.439 150.646 145.456C151.494 144.473 152.13 143.242 152.495 141.875C152.931 140.292 152.993 138.587 152.674 136.961Z" fill="#2F2E41"/>
<path d="M93.4419 191.105L89.4365 188.724L88.8084 188.349L87.805 191.405L80.8003 193.318C80.4539 193.412 80.1409 193.641 79.907 193.972C79.6731 194.302 79.5306 194.717 79.5002 195.155C79.4698 195.593 79.5532 196.032 79.7382 196.407C79.9232 196.783 80.2001 197.075 80.5284 197.241L87.3726 200.705L89.5453 198.28L89.0123 201.535L91.5901 202.84L94.4154 191.685L93.4419 191.105Z" fill="#2F2E41"/>
<path d="M118.057 186.398L118.313 187.201H118.057V186.398Z" fill="#2F2E41"/>
<path d="M116.662 187.373L112.465 189.177L111.807 189.459L112.827 192.506L108.935 199.979C108.742 200.348 108.65 200.784 108.671 201.223C108.692 201.662 108.826 202.081 109.053 202.419C109.28 202.757 109.588 202.996 109.932 203.101C110.277 203.206 110.639 203.172 110.967 203.004L117.795 199.491L117.963 195.872L119.431 198.65L122.003 197.328L117.683 186.935L116.662 187.373Z" fill="#2F2E41"/>
<path d="M100.082 53.481C100.123 54.0191 100.259 54.5395 100.48 55.0055C100.701 55.4715 101.001 55.8718 101.36 56.1781C101.719 56.4844 102.128 56.6894 102.558 56.7786C102.988 56.8677 103.428 56.8389 103.848 56.6941L109.874 67.5005L111.93 61.1661L105.892 51.8753C105.649 51.0165 105.161 50.298 104.519 49.856C103.878 49.414 103.128 49.2792 102.412 49.4771C101.696 49.6751 101.063 50.192 100.634 50.9299C100.204 51.6678 100.008 52.5755 100.082 53.481Z" fill="#A0616A"/>
<path d="M105.263 59.4427L110.823 55.9383L122.707 75.1117L144.104 82.9819C145.162 83.371 146.137 84.0441 146.962 84.9534C147.786 85.8628 148.439 86.9861 148.874 88.2436C149.309 89.5011 149.515 90.862 149.479 92.2297C149.442 93.5973 149.163 94.9382 148.662 96.157C147.754 98.3573 146.18 100.021 144.284 100.783C142.389 101.546 140.327 101.344 138.551 100.223L116.161 86.0488L105.263 59.4427Z" fill="#3F3D56"/>
<path d="M151.597 87.3715C149.419 85.9838 147.731 83.5871 146.974 79.2762L143.439 78.9389L131.725 93.1755C125.624 102.427 130.057 108.808 130.323 109.756L128.205 121.868L128.68 125.922L128.917 127.126L153.089 142.794L151.053 121.777L152.972 103.539C155.153 95.1112 156.039 94.2998 151.597 87.3715Z" fill="#3F3D56"/>
<path d="M132.417 157.681C132.792 157.406 133.114 157.032 133.36 156.586C133.606 156.14 133.771 155.632 133.842 155.099C133.912 154.566 133.888 154.02 133.771 153.499C133.653 152.979 133.445 152.496 133.161 152.087L138.486 140.727L132.99 141.112L128.776 151.84C128.252 152.477 127.936 153.331 127.886 154.239C127.836 155.147 128.056 156.046 128.505 156.766C128.953 157.486 129.6 157.977 130.321 158.145C131.042 158.314 131.787 158.149 132.417 157.681Z" fill="#A0616A"/>
<path d="M134.565 149.329L129.645 144.575L138.586 123.083L135.236 95.7128C135.07 94.3599 135.147 92.9784 135.46 91.6663C135.773 90.3542 136.315 89.1438 137.048 88.1209C137.781 87.0981 138.686 86.2879 139.7 85.7478C140.713 85.2078 141.81 84.9512 142.913 84.9962C144.904 85.0803 146.787 86.1408 148.149 87.9451C149.511 89.7494 150.24 92.1501 150.177 94.6205L149.349 125.785L134.565 149.329Z" fill="#3F3D56"/>
<path d="M155.014 194.291L158.237 197.939L171.116 184.253L166.358 178.868L155.014 194.291Z" fill="#FFB6B6"/>
<path d="M155.152 192.055L156.059 193.082L160.916 195.304L161.5 199.24L161.5 199.24C162.573 200.454 163.213 202.148 163.279 203.948C163.345 205.747 162.833 207.506 161.854 208.837L161.734 209L151.34 197.236L155.152 192.055Z" fill="#2F2E41"/>
<path d="M179.432 151.712L176.65 145.048C176.883 138.3 181.601 133.028 187.019 133.701C190.036 134.075 192.805 136.304 193.788 142.594C196.318 158.767 165.801 190.779 165.801 190.779L160.501 186.372L160.383 181.968L163.49 179.785L163.604 176.039L166.552 174.467L179.432 151.712Z" fill="#2F2E41"/>
<path d="M179.511 64.1442C179.951 58.4717 176.6 53.4312 172.027 52.8858C167.454 52.3405 163.391 56.497 162.951 62.1695C162.512 67.842 165.862 72.8826 170.435 73.4279C175.008 73.9732 179.072 69.8168 179.511 64.1442Z" fill="#FFB6B6"/>
<path d="M165.171 53.5289C166.042 51.1528 169.564 49.8526 175.078 50.2709C180.591 50.6892 181.363 58.8885 181.363 58.8885C184.745 63.0174 176.393 71.9958 176.054 71.596L176.363 69.7589C176.874 66.7159 178.221 64.4546 176.993 61.0732L175.574 60.9244L172.835 61.2451C172.664 61.2651 172.493 61.2149 172.347 61.1022C172.202 60.9896 172.09 60.8206 172.03 60.6216C171.97 60.4225 171.964 60.2043 172.013 60.0006C172.062 59.7969 172.165 59.619 172.303 59.4944L172.33 59.4704L172.278 59.3458C171.289 59.772 170.274 60.1555 169.233 60.1075C168.061 60.0535 166.831 59.3263 166.372 57.9882C166.25 57.6208 166.189 57.227 166.191 56.8298C164.56 57.4211 163.655 59.7382 163.655 59.7382C163.655 59.7382 164.3 55.9051 165.171 53.5289Z" fill="#2F2E41"/>
<path d="M177.929 193.279L174.287 196.26L163.284 180.252L168.659 175.853L177.929 193.279Z" fill="#FFB6B6"/>
<path d="M181.187 196.898L169.443 206.51L169.345 206.326C168.545 204.822 168.26 202.986 168.551 201.221C168.843 199.456 169.688 197.907 170.9 196.914L170.9 196.914L171.971 193.14L177.048 191.883L178.073 191.043L181.187 196.898Z" fill="#2F2E41"/>
<path d="M161.282 151.065L164.726 144.12C165.344 137.41 161.345 131.291 155.909 130.908C152.882 130.695 149.867 132.361 148.105 138.384C143.576 153.872 169.699 191.39 169.699 191.39L175.488 188.06L176.159 183.733L173.363 180.976L173.721 177.253L171.006 175.132L161.282 151.065Z" fill="#2F2E41"/>
<path d="M174.183 140.86C174.228 140.201 174.389 139.563 174.654 138.989C174.919 138.416 175.282 137.922 175.718 137.541C176.154 137.161 176.652 136.903 177.177 136.788C177.701 136.672 178.24 136.7 178.755 136.87L186.011 123.558L188.591 131.271L181.305 142.73C181.017 143.784 180.427 144.671 179.648 145.222C178.868 145.772 177.952 145.949 177.075 145.719C176.197 145.488 175.418 144.866 174.885 143.971C174.352 143.075 174.102 141.969 174.183 140.86Z" fill="#FFB6B6"/>
<path d="M184.429 138.864L199.396 116.476L199.365 116.358C199.33 116.223 197.212 108.141 195.121 100.716C194.799 99.5725 194.478 98.4446 194.165 97.3637C194.029 96.8972 193.896 96.4403 193.764 95.993C192.876 92.9754 192.087 90.4732 191.589 89.2662C190.491 86.5416 188.675 84.3646 186.443 83.0968L186.386 83.0694L186.328 83.09C185.134 83.5155 184.094 84.4326 183.377 85.6902C182.661 86.9478 182.311 88.4708 182.386 90.008C182.779 97.4273 184.557 104.632 187.579 111.053L189.302 114.702L180.337 132.821L184.429 138.864Z" fill="#63D0FF"/>
<path d="M42.9646 196.256C63.7642 196.256 80.6257 189.716 80.6257 181.648C80.6257 173.581 63.7642 167.04 42.9646 167.04C22.165 167.04 5.30353 173.581 5.30353 181.648C5.30353 189.716 22.165 196.256 42.9646 196.256Z" fill="#F2F2F2"/>
<path d="M42.9646 193.415C59.7184 193.415 73.3001 188.147 73.3001 181.648C73.3001 175.15 59.7184 169.882 42.9646 169.882C26.2108 169.882 12.6291 175.15 12.6291 181.648C12.6291 188.147 26.2108 193.415 42.9646 193.415Z" fill="#E6E6E6"/>
<path d="M58.8235 173.31C57.061 173.015 55.306 173.808 53.5312 173.951C52.0455 174.053 50.562 173.706 49.2086 172.939C47.8551 172.172 46.6723 171.008 45.762 169.548C46.2993 170.598 45.7674 172.078 44.912 172.728C44.0567 173.377 43.0004 173.421 41.9977 173.446L32.103 173.696L32.2898 174.755C31.4697 173.612 29.7295 174.394 29.3874 175.864C29.0453 177.335 29.8033 178.926 30.8508 179.735C31.8984 180.544 33.1692 180.744 34.3969 180.896C42.2913 181.877 50.2521 181.675 58.1075 180.295C59.5637 180.039 61.2717 179.492 61.7681 177.775C62.3683 175.698 60.5861 173.605 58.8235 173.31Z" fill="#3F3D56"/>
<path d="M65.3507 173.657C64.964 171.503 63.7571 169.735 63.0348 167.719C62.4436 166.025 62.1933 164.178 62.3053 162.338C62.4174 160.497 62.8885 158.718 63.678 157.154C63.0693 158.142 61.7658 158.035 60.9787 157.264C60.1915 156.493 59.7929 155.279 59.4269 154.121L55.8151 142.691L55.0787 143.275C55.6599 141.925 54.4663 140.17 53.2357 140.281C52.0051 140.391 51.0634 141.824 50.8142 143.323C50.565 144.822 50.8532 146.37 51.1624 147.852C53.1519 157.379 56.0586 166.574 59.8197 175.24C60.5171 176.846 61.5213 178.645 62.9919 178.628C64.7704 178.609 65.7373 175.81 65.3507 173.657Z" fill="#3F3D56"/>
<path d="M64.5038 140.41C63.5624 138.79 62.2213 137.463 60.6368 136.98C59.8813 136.747 59.0929 136.734 58.3324 136.939C57.5719 137.145 56.8598 137.565 56.2511 138.167C55.9086 138.504 55.596 138.885 55.3185 139.305C54.7108 140.221 54.0653 141.098 53.3847 141.932C52.7757 137.032 51.516 132.29 49.6568 127.901C48.6958 125.638 47.5622 123.495 46.2716 121.501C45.2065 119.859 44.0513 118.122 42.3689 117.474C41.7319 117.236 41.0606 117.172 40.4017 117.288C39.7429 117.404 39.1124 117.697 38.5541 118.146C37.3534 119.152 36.4809 120.656 36.0929 122.387C35.8616 123.375 35.76 124.402 35.7921 125.43C35.8282 126.717 36.1059 127.957 36.2791 129.22C36.6573 132.005 36.7589 134.837 36.5818 137.653C36.2626 142.813 35.0087 147.98 32.6839 152.304C32.5419 152.568 32.3957 152.829 32.2452 153.085C31.3488 150.036 29.9765 147.236 28.2067 144.846C27.8953 144.426 27.5716 144.021 27.2355 143.631C26.9596 143.262 26.6289 142.963 26.2615 142.75C24.8696 142.081 23.8693 144.038 24.0087 145.558C24.1098 146.66 24.6913 147.325 25.2387 148.132C25.8539 149.042 26.4098 150.011 26.9011 151.031C27.9153 153.097 28.6267 155.369 29.0024 157.742C29.3973 160.332 29.2135 162.922 28.7642 165.481C27.9373 170.191 26.4849 175.223 27.9315 179.994C28.5149 181.919 29.5817 183.583 31.1309 184.405C31.7795 184.771 32.4877 184.944 33.1995 184.911C33.9113 184.878 34.6073 184.64 35.2322 184.217C35.3917 184.101 35.5446 183.972 35.69 183.831C35.7302 183.925 35.775 184.016 35.8242 184.103C35.993 184.395 36.2612 184.361 36.5233 184.373C36.8037 184.387 37.0843 184.394 37.3649 184.396C38.4495 184.4 39.5332 184.315 40.6088 184.142C42.7671 183.796 44.8816 183.114 46.9021 182.111C51.1075 179.986 54.8561 176.675 57.8509 172.441C61.1219 167.834 63.5293 162.385 64.9 156.487C65.6444 153.415 66.0553 150.234 66.122 147.028C66.1617 144.665 65.595 142.348 64.5038 140.41Z" fill="#FD6584"/>
<path d="M25.8155 179.809C27.5781 179.515 29.3331 180.308 31.1078 180.451C32.5936 180.553 34.0771 180.205 35.4305 179.438C36.7839 178.671 37.9667 177.507 38.877 176.047C38.3398 177.098 38.8717 178.578 39.727 179.227C40.5823 179.877 41.6387 179.921 42.6413 179.946L52.5361 180.196L52.3493 181.255C53.1693 180.111 54.9095 180.894 55.2516 182.364C55.5937 183.834 54.8358 185.426 53.7882 186.235C52.7407 187.043 51.4699 187.243 50.2422 187.396C42.3478 188.376 34.387 188.174 26.5315 186.794C25.0754 186.538 23.3673 185.992 22.871 184.275C22.2708 182.198 24.053 180.104 25.8155 179.809Z" fill="#3F3D56"/>
<path d="M55.9745 181.751C55.3615 179.68 53.9764 178.125 53.0453 176.245C52.1452 174.398 51.6904 172.27 51.7347 170.112C51.7569 169.334 51.6042 168.563 51.2935 167.886C50.9829 167.209 50.5266 166.653 49.9756 166.279C49.9472 166.26 49.9191 166.241 49.8915 166.22C49.0291 165.585 48.5044 164.447 48.018 163.359L43.218 152.623C43.218 152.623 41.612 150.346 40.4041 150.658C39.1961 150.969 38.4156 152.544 38.3286 154.071C38.2415 155.598 38.6925 157.085 39.1571 158.503C42.2988 168.086 46.4055 177.138 51.3793 185.442C51.831 186.215 52.4875 186.766 53.2338 186.999C55.6829 187.719 56.6861 184.154 55.9745 181.751Z" fill="#3F3D56"/>
<path d="M22.0142 181.251C22.6273 179.18 24.0123 177.625 24.9434 175.745C25.8436 173.898 26.2983 171.77 26.254 169.612C26.2318 168.834 26.3845 168.063 26.6952 167.386C27.0058 166.709 27.4621 166.153 28.0131 165.779C28.0416 165.76 28.0696 165.741 28.0972 165.72C28.9597 165.086 29.4844 163.947 29.9708 162.86L34.7707 152.123L35.4383 152.823C35.0063 151.39 36.3767 149.846 37.5846 150.158C38.7926 150.469 39.5731 152.044 39.6601 153.571C39.7472 155.098 39.2963 156.585 38.8316 158.003C35.6899 167.586 31.5832 176.638 26.6095 184.942C26.1577 185.715 25.5012 186.266 24.7549 186.499C22.3058 187.219 21.3026 183.654 22.0142 181.251Z" fill="#3F3D56"/>
<path d="M29.5422 138.26L29.5872 138.175C29.9441 138.159 30.2917 138.031 30.5974 137.802C30.9031 137.573 31.1567 137.251 31.3342 136.867C31.5117 136.482 31.6074 136.048 31.612 135.605C31.6167 135.163 31.5303 134.726 31.361 134.336L29.5422 138.26Z" fill="#FD6584"/>
<path d="M52.9157 122.223C52.722 122.188 52.5242 122.224 52.3467 122.326C51.9526 122.593 51.9211 123.327 52.159 123.799C52.4338 124.243 52.7917 124.596 53.2016 124.829C53.6126 125.064 53.9514 125.457 54.1674 125.95C54.3415 126.464 54.1565 127.194 53.7146 127.293L53.3889 128.748C53.9974 128.544 54.5285 128.08 54.8888 127.439C55.2492 126.797 55.4157 126.018 55.3592 125.239C55.3028 124.46 55.0269 123.731 54.58 123.179C54.1332 122.628 53.5439 122.289 52.9157 122.223Z" fill="#FD6584"/>
<path d="M62.0373 126.398C62.549 128.406 62.4989 130.569 61.895 132.537C62.2339 132.149 62.5068 131.68 62.6978 131.16C62.8888 130.639 62.9941 130.076 63.0073 129.505C63.0206 128.933 62.9416 128.363 62.775 127.83C62.6084 127.297 62.3576 126.81 62.0373 126.398Z" fill="#FD6584"/>
<path d="M61.8198 132.792C61.848 132.708 61.8689 132.621 61.895 132.537C61.7262 132.736 61.5413 132.913 61.3431 133.065L61.8198 132.792Z" fill="#FD6584"/>
<path d="M97.4529 58.0676L101.035 41.9045C101.158 41.3517 101.452 40.882 101.854 40.5984C102.256 40.3149 102.732 40.2407 103.178 40.3921L106.018 41.3604C106.464 41.513 106.842 41.8787 107.071 42.3772C107.3 42.8757 107.359 43.4663 107.237 44.0195L103.656 60.1825C103.533 60.7353 103.238 61.205 102.836 61.4886C102.434 61.7721 101.958 61.8463 101.512 61.6949L98.6722 60.7266C98.2265 60.574 97.8479 60.2083 97.6193 59.7098C97.3907 59.2113 97.3309 58.6207 97.4529 58.0676Z" fill="#3F3D56"/>
<path d="M103.328 41.3298C103.088 41.2482 102.831 41.2882 102.614 41.441C102.398 41.5938 102.239 41.8469 102.173 42.1448L98.591 58.3078C98.5253 58.6059 98.5575 58.9242 98.6807 59.1928C98.8038 59.4615 99.0079 59.6585 99.2481 59.7408L102.088 60.7091C102.328 60.7906 102.585 60.7506 102.801 60.5979C103.018 60.4451 103.177 60.1919 103.243 59.894L106.825 43.731C106.89 43.4329 106.858 43.1146 106.735 42.846C106.612 42.5774 106.408 42.3803 106.168 42.298L103.328 41.3298Z" fill="#63D0FF"/>
<path d="M14.0973 129.541C13.9766 129.548 13.857 129.509 13.7549 129.428C13.6528 129.348 13.573 129.231 13.5264 129.093C13.4797 128.954 13.4685 128.801 13.4942 128.655C13.5199 128.508 13.5813 128.375 13.6701 128.273L13.7105 128.074L13.6944 128.026C13.1516 126.421 9.68819 130.896 9.53845 132.405C9.4725 133.072 9.50032 133.748 9.62067 134.403C8.49879 131.368 7.91623 128.068 7.91248 124.729C7.91225 123.891 7.94978 123.053 8.02491 122.221C8.087 121.538 8.17314 120.86 8.28333 120.187C8.88463 116.535 10.1757 113.113 12.0504 110.2C13.1225 110.275 14.0621 110.072 14.1529 107.494C14.169 107.036 14.4432 106.639 14.5036 106.187C14.4012 106.204 14.2972 106.214 14.1948 106.223C14.1629 106.225 14.1294 106.227 14.0975 106.229L14.0855 106.23C13.973 106.236 13.8614 106.202 13.7642 106.131C13.6671 106.061 13.5884 105.957 13.5377 105.832C13.487 105.707 13.4665 105.567 13.4785 105.428C13.4906 105.289 13.5348 105.158 13.6057 105.049C13.6499 104.982 13.6942 104.914 13.7384 104.847C13.8055 104.743 13.8743 104.641 13.9414 104.537C13.9492 104.527 13.9565 104.516 13.9633 104.505C14.0405 104.387 14.1176 104.27 14.1948 104.152C14.0539 103.88 13.8644 103.653 13.6411 103.488C12.8675 102.926 11.8003 103.315 11.2416 104.183C10.6811 105.051 10.5754 106.268 10.7701 107.353C10.9615 108.276 11.2781 109.151 11.7064 109.942C11.6644 110.009 11.6208 110.073 11.5789 110.14C10.812 111.363 10.1437 112.677 9.58336 114.061C9.74189 112.525 7.80343 106.979 7.05378 105.804C6.85551 105.488 6.58626 105.252 6.28005 105.127C5.97385 105.001 5.64444 104.99 5.33347 105.097C5.0225 105.203 4.74393 105.421 4.53297 105.724C4.32201 106.027 4.18812 106.4 4.14825 106.797C4.14671 106.815 4.14521 106.832 4.14375 106.849C4.25509 106.927 4.36409 107.01 4.47074 107.097C4.60471 107.208 4.70852 107.367 4.76856 107.552C4.82861 107.738 4.84209 107.942 4.80724 108.137C4.77238 108.332 4.69082 108.509 4.57325 108.646C4.45567 108.783 4.30756 108.872 4.14832 108.903L4.132 108.906C2.64154 111.545 7.41957 118.416 8.61555 116.873C8.05262 118.852 7.69952 120.914 7.56513 123.005C7.48904 124.239 7.49353 125.479 7.57856 126.712L7.57352 126.669C7.30779 123.983 2.74898 119.989 1.41773 120.322C0.650837 120.514 -0.104517 120.47 0.0119364 121.43L0.0176042 121.476C0.224232 121.58 0.425418 121.7 0.619992 121.836C0.731342 121.914 0.840335 121.996 0.946977 122.084C1.08095 122.195 1.18475 122.353 1.2448 122.539C1.30484 122.724 1.31832 122.928 1.28347 123.123C1.24862 123.318 1.16706 123.496 1.04948 123.632C0.931907 123.769 0.783797 123.858 0.624556 123.889L0.608241 123.892C0.5965 123.894 0.586426 123.896 0.574695 123.898C-0.103748 126.794 4.92756 131.467 7.9863 129.98H7.98799C8.29111 131.614 8.7303 133.205 9.29849 134.726H13.98C13.9968 134.661 14.0119 134.595 14.027 134.53C13.5937 134.564 13.1587 134.532 12.7316 134.435C13.079 133.906 13.4263 133.373 13.7736 132.844C13.7814 132.834 13.7887 132.824 13.7955 132.813C13.9716 132.543 14.1495 132.274 14.3257 132.003L14.3258 132.003C14.3352 131.174 14.2583 130.346 14.0973 129.541ZM8.73636 116.459L8.73882 116.455L8.73636 116.463V116.459ZM7.69938 128.055L7.65911 127.943C7.66079 127.861 7.66079 127.78 7.65911 127.697C7.65911 127.674 7.65575 127.651 7.65575 127.628C7.67085 127.772 7.68427 127.916 7.70105 128.059L7.69938 128.055Z" fill="#F2F2F2"/>
<path d="M214.903 139.998C214.742 140.803 214.665 141.63 214.674 142.46L214.674 142.46C214.851 142.731 215.028 142.999 215.205 143.27C215.211 143.281 215.219 143.291 215.226 143.301C215.574 143.83 215.921 144.362 216.268 144.891C215.841 144.988 215.406 145.021 214.973 144.987C214.988 145.051 215.003 145.118 215.02 145.182H219.702C220.27 143.661 220.709 142.071 221.012 140.437H221.014C224.072 141.924 229.104 137.25 228.425 134.355C228.414 134.353 228.404 134.351 228.392 134.349L228.375 134.345C228.216 134.315 228.068 134.226 227.951 134.089C227.833 133.952 227.751 133.775 227.717 133.58C227.682 133.384 227.695 133.181 227.755 132.995C227.815 132.81 227.919 132.651 228.053 132.54C228.16 132.453 228.269 132.37 228.38 132.292C228.575 132.157 228.776 132.036 228.982 131.932L228.988 131.886C229.105 130.926 228.349 130.97 227.582 130.778C226.251 130.446 221.692 134.439 221.427 137.125L221.421 137.169C221.506 135.936 221.511 134.696 221.435 133.462C221.301 131.37 220.947 129.309 220.384 127.33C221.58 128.873 226.358 122.002 224.868 119.362L224.852 119.359C224.692 119.329 224.544 119.239 224.427 119.102C224.309 118.966 224.228 118.788 224.193 118.593C224.158 118.398 224.171 118.194 224.231 118.009C224.291 117.823 224.395 117.665 224.529 117.554C224.636 117.466 224.745 117.384 224.856 117.306C224.855 117.288 224.853 117.271 224.852 117.254C224.812 116.857 224.678 116.483 224.467 116.18C224.256 115.878 223.978 115.659 223.667 115.553C223.356 115.447 223.026 115.457 222.72 115.583C222.414 115.709 222.144 115.944 221.946 116.26C221.197 117.435 219.258 122.982 219.417 124.518C218.856 123.133 218.188 121.82 217.421 120.596C217.379 120.53 217.336 120.465 217.294 120.399C217.722 119.608 218.039 118.732 218.23 117.809C218.425 116.725 218.319 115.507 217.758 114.639C217.2 113.771 216.132 113.382 215.359 113.944C215.136 114.11 214.946 114.337 214.805 114.608C214.882 114.727 214.96 114.843 215.037 114.962C215.044 114.973 215.051 114.983 215.059 114.993C215.126 115.097 215.194 115.199 215.262 115.303C215.306 115.371 215.35 115.438 215.394 115.506C215.465 115.614 215.509 115.746 215.521 115.885C215.534 116.023 215.513 116.164 215.462 116.288C215.412 116.413 215.333 116.517 215.236 116.588C215.139 116.658 215.027 116.692 214.915 116.686L214.903 116.685C214.871 116.683 214.837 116.681 214.805 116.679C214.703 116.671 214.599 116.66 214.496 116.644C214.557 117.095 214.831 117.492 214.847 117.951C214.938 120.528 215.878 120.731 216.95 120.657C218.824 123.569 220.115 126.992 220.717 130.644C220.827 131.316 220.914 131.994 220.975 132.677C221.05 133.51 221.088 134.347 221.088 135.185C221.084 138.525 220.501 141.824 219.379 144.86C219.5 144.205 219.528 143.529 219.462 142.862C219.312 141.353 215.848 136.877 215.306 138.483L215.29 138.531L215.33 138.73C215.419 138.832 215.48 138.965 215.506 139.111C215.532 139.258 215.52 139.411 215.474 139.549C215.427 139.687 215.347 139.805 215.245 139.885C215.143 139.965 215.023 140.004 214.903 139.998ZM220.264 126.92L220.261 126.912L220.264 126.916V126.92ZM221.299 138.516C221.316 138.372 221.329 138.228 221.344 138.085C221.344 138.108 221.341 138.131 221.341 138.153C221.339 138.237 221.339 138.318 221.341 138.399L221.301 138.511L221.299 138.516Z" fill="#F2F2F2"/>
</g>
<defs>
<clipPath id="clip0_3_32">
<rect width="229" height="209" fill="white"/>
</clipPath>
</defs>
</svg>
