<svg width="258" height="112" viewBox="0 0 258 112" fill="none" xmlns="http://www.w3.org/2000/svg">
<g clip-path="url(#clip0_13_85)">
<path d="M7.40335 98.8632C8.30967 99.2322 9.28277 99.3246 10.2289 99.1316C11.175 98.9386 12.0623 98.4667 12.8052 97.7613C14.6972 95.9221 15.2905 92.8931 15.773 90.0877L17.2006 81.7895L14.2118 84.1728C12.0622 85.8868 9.86442 87.6559 8.37624 90.1384C6.88807 92.621 6.23882 96.0102 7.43417 98.6966" fill="#E6E6E6"/>
<path d="M7.86486 109.487C7.48867 106.313 7.10162 103.098 7.36613 99.8903C7.60054 97.0411 8.35112 94.2589 9.87921 91.9766C10.6903 90.7677 11.6773 89.7319 12.7957 88.9158C13.0873 88.7027 13.3557 89.2378 13.0654 89.45C11.1301 90.8664 9.63324 92.958 8.79055 95.4231C7.85988 98.1643 7.71044 101.153 7.87074 104.065C7.96764 105.826 8.17355 107.575 8.38034 109.323C8.39667 109.402 8.38647 109.485 8.35182 109.556C8.31717 109.626 8.26064 109.679 8.19367 109.703C8.12535 109.725 8.05253 109.714 7.99101 109.673C7.92949 109.633 7.88423 109.566 7.86505 109.487L7.86486 109.487Z" fill="#F2F2F2"/>
<path d="M10.5726 104.394C10.9613 105.079 11.4956 105.636 12.124 106.011C12.7524 106.387 13.4539 106.569 14.1607 106.54C15.9775 106.44 17.4915 104.972 18.8543 103.578L22.886 99.4555L20.2178 99.3076C18.2989 99.2012 16.3305 99.1013 14.5028 99.7874C12.6752 100.473 10.9896 102.122 10.6555 104.313" fill="#E6E6E6"/>
<path d="M6.8015 111.312C8.61262 107.601 10.7132 103.476 14.4669 102.158C15.5105 101.793 16.6048 101.662 17.6908 101.772C18.0332 101.807 17.9477 102.418 17.606 102.384C15.7855 102.209 13.9685 102.765 12.4609 103.96C11.0436 105.151 9.84209 106.652 8.9245 108.38C8.33883 109.412 7.81428 110.489 7.28972 111.564C7.12211 111.908 6.63193 111.66 6.8015 111.312Z" fill="#F2F2F2"/>
<path d="M173.069 94.0122C174.317 94.5202 175.657 94.6475 176.96 94.3817C178.263 94.116 179.485 93.4661 180.508 92.4947C183.113 89.962 183.93 85.7909 184.594 81.9277L186.56 70.5005L182.445 73.7826C179.485 76.1428 176.458 78.5789 174.409 81.9976C172.359 85.4162 171.465 90.0833 173.111 93.7826" fill="#E6E6E6"/>
<path d="M173.704 108.642C173.186 104.272 172.653 99.8442 173.018 95.4265C173.34 91.503 174.374 87.6716 176.478 84.5288C177.595 82.8641 178.954 81.4377 180.495 80.3139C180.896 80.0205 181.266 80.7573 180.866 81.0497C178.201 83.0001 176.14 85.8803 174.979 89.2749C173.698 93.0498 173.492 97.1649 173.713 101.175C173.846 103.6 174.13 106.009 174.414 108.415C174.437 108.524 174.423 108.639 174.375 108.736C174.327 108.833 174.249 108.906 174.157 108.939C174.063 108.969 173.963 108.954 173.878 108.898C173.793 108.843 173.731 108.75 173.705 108.642L173.704 108.642Z" fill="#F2F2F2"/>
<path d="M177.433 101.629C177.968 102.571 178.704 103.338 179.57 103.856C180.435 104.373 181.401 104.624 182.374 104.583C184.876 104.446 186.961 102.424 188.838 100.505L194.39 94.8277L190.715 94.624C188.073 94.4775 185.362 94.34 182.845 95.2848C180.329 96.2295 178.007 98.4998 177.547 101.517" fill="#E6E6E6"/>
<path d="M172.24 111.155C174.734 106.044 177.627 100.365 182.796 98.5492C184.233 98.0462 185.74 97.866 187.235 98.0183C187.707 98.0654 187.589 98.9068 187.119 98.8599C184.612 98.6189 182.11 99.3855 180.033 101.031C178.036 102.606 176.48 104.795 175.164 107.117C174.357 108.539 173.635 110.021 172.912 111.502C172.682 111.975 172.007 111.634 172.24 111.155Z" fill="#F2F2F2"/>
<path d="M149.694 17.1155C149.431 16.9828 149.219 16.7428 149.099 16.4411C148.979 16.1394 148.959 15.7971 149.042 15.4793C149.056 15.4306 149.065 15.3802 149.068 15.3292C149.076 15.1836 149.042 15.039 148.974 14.9169C148.905 14.7947 148.804 14.7015 148.686 14.651C148.567 14.6005 148.438 14.5955 148.318 14.6366C148.197 14.6777 148.091 14.7628 148.015 14.8793C147.989 14.9206 147.967 14.9653 147.95 15.0125C147.835 15.3171 147.628 15.5623 147.368 15.7014C147.107 15.8405 146.811 15.8638 146.537 15.7669C146.495 15.7512 146.451 15.7413 146.407 15.7374C146.282 15.7286 146.157 15.7669 146.051 15.8466C145.946 15.9263 145.865 16.0432 145.822 16.1801C145.778 16.3169 145.774 16.4664 145.809 16.6063C145.845 16.7463 145.918 16.8693 146.019 16.9571C146.055 16.9873 146.093 17.0125 146.134 17.0322C146.397 17.1649 146.609 17.4049 146.729 17.7066C146.849 18.0083 146.869 18.3506 146.785 18.6684C146.772 18.7171 146.763 18.7675 146.76 18.8185C146.752 18.9641 146.785 19.1087 146.854 19.2308C146.923 19.353 147.024 19.4462 147.142 19.4966C147.26 19.5471 147.389 19.5522 147.51 19.5111C147.631 19.47 147.737 19.3849 147.813 19.2684C147.839 19.2271 147.861 19.1823 147.878 19.1351C147.992 18.8305 148.2 18.5854 148.46 18.4463C148.721 18.3072 149.016 18.2839 149.291 18.3808C149.333 18.3965 149.376 18.4063 149.42 18.4102C149.546 18.4191 149.671 18.3808 149.776 18.3011C149.882 18.2214 149.962 18.1044 150.006 17.9676C150.05 17.8307 150.054 17.6813 150.018 17.5413C149.983 17.4014 149.909 17.2784 149.809 17.1906C149.773 17.1604 149.735 17.1352 149.694 17.1155Z" fill="#CBCBCB"/>
<path d="M171.963 77.1681C171.7 77.0355 171.488 76.7955 171.368 76.4938C171.248 76.1921 171.228 75.8497 171.311 75.532C171.325 75.4833 171.333 75.4329 171.337 75.3818C171.344 75.2362 171.311 75.0917 171.242 74.9695C171.174 74.8474 171.073 74.7542 170.954 74.7037C170.836 74.6532 170.707 74.6482 170.586 74.6893C170.466 74.7304 170.359 74.8155 170.284 74.9319C170.257 74.9732 170.236 75.018 170.219 75.0652C170.104 75.3698 169.897 75.615 169.636 75.7541C169.376 75.8932 169.08 75.9165 168.806 75.8196C168.764 75.8039 168.72 75.794 168.676 75.7901C168.551 75.7813 168.426 75.8195 168.32 75.8993C168.215 75.979 168.134 76.0959 168.091 76.2328C168.047 76.3696 168.043 76.5191 168.078 76.659C168.114 76.799 168.187 76.9219 168.288 77.0098C168.323 77.04 168.362 77.0652 168.403 77.0849C168.666 77.2175 168.878 77.4576 168.998 77.7593C169.118 78.061 169.138 78.4033 169.054 78.721C169.041 78.7698 169.032 78.8202 169.029 78.8712C169.021 79.0168 169.054 79.1613 169.123 79.2835C169.192 79.4056 169.293 79.4988 169.411 79.5493C169.529 79.5998 169.658 79.6049 169.779 79.5638C169.9 79.5226 170.006 79.4375 170.082 79.3211C170.108 79.2798 170.13 79.235 170.147 79.1878C170.261 78.8832 170.469 78.638 170.729 78.4989C170.99 78.3598 171.285 78.3365 171.56 78.4335C171.602 78.4491 171.645 78.459 171.689 78.4629C171.815 78.4718 171.94 78.4335 172.045 78.3538C172.151 78.274 172.231 78.1571 172.275 78.0203C172.318 77.8834 172.323 77.7339 172.287 77.594C172.252 77.454 172.178 77.3311 172.078 77.2432C172.042 77.2131 172.003 77.1879 171.963 77.1681Z" fill="#F1F1F1"/>
<path d="M55.2105 42.1681C54.9474 42.0355 54.7357 41.7955 54.6156 41.4938C54.4955 41.1921 54.4754 40.8497 54.5591 40.532C54.5726 40.4833 54.5812 40.4329 54.5845 40.3818C54.5922 40.2362 54.5591 40.0917 54.4903 39.9695C54.4214 39.8474 54.3205 39.7542 54.2023 39.7037C54.0841 39.6532 53.9551 39.6482 53.8342 39.6893C53.7134 39.7304 53.6072 39.8155 53.5314 39.9319C53.5053 39.9732 53.4835 40.018 53.4665 40.0652C53.352 40.3698 53.1447 40.615 52.8842 40.7541C52.6237 40.8932 52.3281 40.9165 52.0537 40.8196C52.0116 40.8039 51.9681 40.794 51.9241 40.7901C51.7983 40.7813 51.6735 40.8195 51.568 40.8993C51.4626 40.979 51.3821 41.0959 51.3385 41.2328C51.2949 41.3696 51.2905 41.5191 51.326 41.659C51.3615 41.799 51.435 41.9219 51.5356 42.0098C51.5712 42.04 51.6099 42.0652 51.6507 42.0849C51.9137 42.2175 52.1254 42.4576 52.2455 42.7593C52.3656 43.061 52.3857 43.4033 52.302 43.721C52.2885 43.7698 52.2799 43.8201 52.2766 43.8712C52.2689 44.0168 52.302 44.1613 52.3708 44.2835C52.4397 44.4056 52.5407 44.4988 52.6588 44.5493C52.777 44.5998 52.906 44.6049 53.0269 44.5638C53.1477 44.5226 53.2539 44.4375 53.3297 44.3211C53.3558 44.2798 53.3776 44.235 53.3946 44.1878C53.5092 43.8832 53.7164 43.638 53.9769 43.4989C54.2374 43.3598 54.533 43.3365 54.8074 43.4335C54.8495 43.4491 54.893 43.459 54.9371 43.4629C55.0628 43.4718 55.1876 43.4335 55.2931 43.3538C55.3985 43.274 55.479 43.1571 55.5226 43.0203C55.5662 42.8834 55.5706 42.7339 55.5351 42.594C55.4996 42.454 55.4261 42.3311 55.3255 42.2432C55.2899 42.2131 55.2512 42.1879 55.2105 42.1681Z" fill="#F1F1F1"/>
<path d="M103.917 20.6316C104.971 20.6316 105.826 19.6419 105.826 18.421C105.826 17.2002 104.971 16.2105 103.917 16.2105C102.863 16.2105 102.008 17.2002 102.008 18.421C102.008 19.6419 102.863 20.6316 103.917 20.6316Z" fill="#F1F1F1"/>
<path d="M205.717 14.7368C206.771 14.7368 207.626 13.7472 207.626 12.5263C207.626 11.3055 206.771 10.3158 205.717 10.3158C204.663 10.3158 203.808 11.3055 203.808 12.5263C203.808 13.7472 204.663 14.7368 205.717 14.7368Z" fill="#63D0FF"/>
<path d="M57.4706 4.42105C58.5248 4.42105 59.3794 3.43137 59.3794 2.21053C59.3794 0.989686 58.5248 0 57.4706 0C56.4164 0 55.5619 0.989686 55.5619 2.21053C55.5619 3.43137 56.4164 4.42105 57.4706 4.42105Z" fill="#CBCBCB"/>
<path d="M50.1302 104.886C57.697 104.886 63.8311 97.7822 63.8311 89.0191C63.8311 80.2561 57.697 73.1522 50.1302 73.1522C42.5635 73.1522 36.4294 80.2561 36.4294 89.0191C36.4294 97.7822 42.5635 104.886 50.1302 104.886Z" fill="#2F2E41"/>
<path d="M48.0491 101.472H43.8868V110.108H48.0491V101.472Z" fill="#2F2E41"/>
<path d="M56.3736 101.472H52.2114V110.108H56.3736V101.472Z" fill="#2F2E41"/>
<path d="M47.3554 111.715C49.271 111.715 50.8239 111.04 50.8239 110.209C50.8239 109.377 49.271 108.702 47.3554 108.702C45.4397 108.702 43.8868 109.377 43.8868 110.209C43.8868 111.04 45.4397 111.715 47.3554 111.715Z" fill="#2F2E41"/>
<path d="M55.6799 111.514C57.5956 111.514 59.1485 110.84 59.1485 110.008C59.1485 109.176 57.5956 108.501 55.6799 108.501C53.7643 108.501 52.2114 109.176 52.2114 110.008C52.2114 110.84 53.7643 111.514 55.6799 111.514Z" fill="#2F2E41"/>
<path d="M64.8943 82.0857C67.8614 78.6468 69.5111 74.9845 68.5789 73.9057C67.6467 72.827 64.4857 74.7403 61.5185 78.1792C58.5514 81.6181 56.9017 85.2804 57.8339 86.3591C58.7661 87.4379 61.9271 85.5246 64.8943 82.0857Z" fill="#2F2E41"/>
<path d="M39.0869 87.4644C40.0191 86.3856 38.3695 82.7234 35.4023 79.2845C32.4352 75.8455 29.2741 73.9323 28.3419 75.011C27.4097 76.0897 29.0594 79.752 32.0265 83.1909C34.9937 86.6298 38.1547 88.5431 39.0869 87.4644Z" fill="#2F2E41"/>
<path d="M49.5538 92.1934C52.1399 92.1934 54.2364 89.7655 54.2364 86.7706C54.2364 83.7756 52.1399 81.3477 49.5538 81.3477C46.9677 81.3477 44.8712 83.7756 44.8712 86.7706C44.8712 89.7655 46.9677 92.1934 49.5538 92.1934Z" fill="white"/>
<path d="M49.5538 88.5782C50.4158 88.5782 51.1146 87.7689 51.1146 86.7706C51.1146 85.7723 50.4158 84.963 49.5538 84.963C48.6917 84.963 47.9929 85.7723 47.9929 86.7706C47.9929 87.7689 48.6917 88.5782 49.5538 88.5782Z" fill="#3F3D56"/>
<path d="M53.271 96.7999C53.4156 97.7202 53.2387 98.6692 52.7791 99.4384C52.3195 100.208 51.6149 100.734 50.8204 100.901C50.0258 101.069 49.2063 100.864 48.5421 100.332C47.878 99.7994 47.4236 98.9834 47.2789 98.0632L47.2779 98.0564C46.9783 96.1398 48.2578 95.4616 49.9128 95.1146C51.5677 94.7677 52.9714 94.8834 53.271 96.7999Z" fill="white"/>
<path d="M63.5647 105.672C63.2564 105.672 62.9607 105.814 62.7426 106.067C62.5246 106.319 62.4019 106.662 62.4016 107.019V109.833C62.4019 110.19 62.5246 110.532 62.7426 110.785C62.9607 111.037 63.2564 111.179 63.5647 111.18H82.28C82.5884 111.179 82.8841 111.037 83.1021 110.785C83.3202 110.532 83.4428 110.19 83.4432 109.833V107.019C83.4428 106.662 83.3202 106.319 83.1021 106.067C82.8841 105.814 82.5884 105.672 82.28 105.672H63.5647Z" fill="#E5E5E5"/>
<path d="M74.3275 103.798C74.2117 103.72 74.074 103.699 73.9448 103.74C73.8156 103.78 73.7054 103.878 73.6385 104.012L72.943 105.407L72.2615 103.847C72.2011 103.709 72.0957 103.604 71.9686 103.556C71.8415 103.507 71.703 103.519 71.5837 103.589C71.4643 103.659 71.3738 103.781 71.3321 103.929C71.2904 104.076 71.3009 104.236 71.3613 104.374L71.8917 105.588H71.6973V111.263H74.2915V105.588H74.0174L74.5122 104.596C74.5791 104.462 74.5972 104.302 74.5626 104.153C74.5279 104.003 74.4434 103.875 74.3275 103.798Z" fill="#63D0FF"/>
<path d="M49.7774 78.6119C47.343 78.609 44.923 78.1808 42.5989 77.3418C42.4375 77.2815 42.2966 77.1636 42.1965 77.0049C42.0964 76.8463 42.0421 76.655 42.0415 76.4586V70C42.0418 69.7558 42.1256 69.5217 42.2747 69.3491C42.4238 69.1764 42.626 69.0793 42.8368 69.079H56.8344C57.0452 69.0793 57.2474 69.1764 57.3965 69.3491C57.5455 69.5217 57.6294 69.7558 57.6297 70V76.4548C57.6297 76.6529 57.5748 76.8459 57.4729 77.0051C57.371 77.1643 57.2275 77.2813 57.0638 77.3388C54.702 78.1745 52.247 78.6034 49.7774 78.6119Z" fill="#63D0FF"/>
<path opacity="0.2" d="M57.4706 70V71.0795L49.896 74.1558C49.7545 74.2124 49.6003 74.2098 49.4602 74.1485L42.2006 70.9911V70C42.2011 69.8048 42.2683 69.6177 42.3875 69.4796C42.5067 69.3416 42.6682 69.2638 42.8368 69.2632H56.8344C57.003 69.2638 57.1645 69.3416 57.2837 69.4796C57.4029 69.6177 57.4701 69.8048 57.4706 70Z" fill="black"/>
<path d="M49.6841 72.9074C49.5886 72.9075 49.494 72.8877 49.4046 72.8489L38.5561 68.1314C38.4027 68.0647 38.2709 67.9447 38.1786 67.788C38.0863 67.6312 38.0381 67.4452 38.0405 67.2555C38.0429 67.0658 38.0959 66.8815 38.1921 66.728C38.2884 66.5744 38.4232 66.459 38.5783 66.3976L48.7855 62.3536C48.9504 62.2889 49.129 62.288 49.2943 62.3511L60.6865 66.7489C60.8438 66.8097 60.9808 66.9259 61.0784 67.0813C61.1759 67.2367 61.229 67.4235 61.2302 67.6156C61.2315 67.8077 61.1809 67.9955 61.0855 68.1526C60.99 68.3097 60.8546 68.4284 60.698 68.4919L49.9471 72.8558C49.8625 72.89 49.7736 72.9075 49.6841 72.9074Z" fill="#63D0FF"/>
<path d="M39.8147 72.5789H39.4966V67.2368H49.1994V67.6052H39.8147V72.5789Z" fill="#3F3D56"/>
<path d="M39.6556 73.6842C40.007 73.6842 40.2918 73.3543 40.2918 72.9474C40.2918 72.5404 40.007 72.2105 39.6556 72.2105C39.3042 72.2105 39.0193 72.5404 39.0193 72.9474C39.0193 73.3543 39.3042 73.6842 39.6556 73.6842Z" fill="#3F3D56"/>
<path d="M129.344 104.886C136.91 104.886 143.044 97.7822 143.044 89.0191C143.044 80.2561 136.91 73.1522 129.344 73.1522C121.777 73.1522 115.643 80.2561 115.643 89.0191C115.643 97.7822 121.777 104.886 129.344 104.886Z" fill="#2F2E41"/>
<path d="M127.262 101.472H123.1V110.108H127.262V101.472Z" fill="#2F2E41"/>
<path d="M135.587 101.472H131.425V110.108H135.587V101.472Z" fill="#2F2E41"/>
<path d="M126.569 111.715C128.484 111.715 130.037 111.04 130.037 110.209C130.037 109.377 128.484 108.702 126.569 108.702C124.653 108.702 123.1 109.377 123.1 110.209C123.1 111.04 124.653 111.715 126.569 111.715Z" fill="#2F2E41"/>
<path d="M134.893 111.514C136.809 111.514 138.362 110.84 138.362 110.008C138.362 109.176 136.809 108.501 134.893 108.501C132.978 108.501 131.425 109.176 131.425 110.008C131.425 110.84 132.978 111.514 134.893 111.514Z" fill="#2F2E41"/>
<path d="M144.108 82.0856C147.075 78.6467 148.724 74.9844 147.792 73.9057C146.86 72.8269 143.699 74.7402 140.732 78.1791C137.765 81.618 136.115 85.2803 137.047 86.3591C137.979 87.4378 141.14 85.5245 144.108 82.0856Z" fill="#2F2E41"/>
<path d="M117.115 96.8138C119.509 92.8206 120.572 88.8778 119.49 88.0073C118.407 87.1369 115.589 89.6684 113.195 93.6616C110.8 97.6548 109.737 101.598 110.819 102.468C111.902 103.339 114.72 100.807 117.115 96.8138Z" fill="#2F2E41"/>
<path d="M128.767 92.1934C131.353 92.1934 133.45 89.7655 133.45 86.7706C133.45 83.7756 131.353 81.3477 128.767 81.3477C126.181 81.3477 124.085 83.7756 124.085 86.7706C124.085 89.7655 126.181 92.1934 128.767 92.1934Z" fill="white"/>
<path d="M130.358 86.7361C131.22 86.7361 131.919 85.9268 131.919 84.9285C131.919 83.9302 131.22 83.1208 130.358 83.1208C129.496 83.1208 128.797 83.9302 128.797 84.9285C128.797 85.9268 129.496 86.7361 130.358 86.7361Z" fill="#3F3D56"/>
<path d="M134.381 96.7999C134.841 98.7162 133.167 100.552 130.644 100.901C128.121 101.25 125.703 99.9794 125.243 98.0632L125.242 98.0564C124.785 96.1398 126.736 95.4616 129.26 95.1146C131.784 94.7677 133.924 94.8834 134.381 96.7999Z" fill="white"/>
<path d="M124.55 79.6808C122.29 80.7299 119.907 81.3782 117.48 81.6039C117.311 81.6177 117.142 81.5692 116.998 81.4652C116.854 81.3613 116.742 81.2073 116.679 81.0252L114.598 75.033C114.52 74.8063 114.522 74.5529 114.605 74.3283C114.688 74.1036 114.844 73.9262 115.039 73.8348L128.026 67.7872C128.222 67.6964 128.441 67.6992 128.635 67.795C128.829 67.8908 128.982 68.0717 129.061 68.2982L131.14 74.2869C131.204 74.4708 131.215 74.6735 131.172 74.8652C131.129 75.057 131.033 75.2275 130.9 75.3516C128.978 77.1474 126.838 78.606 124.55 79.6808Z" fill="#63D0FF"/>
<path opacity="0.2" d="M128.913 68.3669L129.261 69.3684L123.224 75.4952C123.111 75.6089 122.967 75.6731 122.818 75.6767L115.065 75.8838L114.746 74.9643C114.683 74.7829 114.685 74.5803 114.751 74.4007C114.818 74.2211 114.942 74.0791 115.099 74.0057L128.086 67.9581C128.242 67.8858 128.417 67.8882 128.572 67.9648C128.727 68.0414 128.85 68.1859 128.913 68.3669Z" fill="black"/>
<path d="M122.625 74.4285C122.537 74.4699 122.443 74.4924 122.347 74.4951L110.762 74.8052C110.599 74.8095 110.438 74.7552 110.301 74.6496C110.165 74.544 110.061 74.3923 110.002 74.2152C109.943 74.0382 109.933 73.8444 109.973 73.6603C110.012 73.4762 110.1 73.3109 110.224 73.187L118.392 65.0249C118.524 64.8937 118.69 64.8157 118.863 64.8027L130.85 63.9612C131.015 63.9495 131.18 63.9982 131.32 64.1002C131.461 64.2023 131.57 64.3527 131.633 64.5304C131.696 64.708 131.71 64.9041 131.672 65.0911C131.634 65.2781 131.547 65.4467 131.422 65.5733L122.853 74.267C122.785 74.3353 122.709 74.3899 122.625 74.4285Z" fill="#63D0FF"/>
<path d="M113.363 78.3879L113.068 78.5253L111.347 73.5689L120.349 69.3766L120.468 69.7185L111.76 73.7734L113.363 78.3879Z" fill="#3F3D56"/>
<path d="M113.334 79.5352C113.685 79.5352 113.97 79.2053 113.97 78.7984C113.97 78.3914 113.685 78.0615 113.334 78.0615C112.982 78.0615 112.698 78.3914 112.698 78.7984C112.698 79.2053 112.982 79.5352 113.334 79.5352Z" fill="#3F3D56"/>
<path d="M181.503 51.5307C179.437 50.0382 177.578 48.1934 175.988 46.0586C175.879 45.9085 175.813 45.7222 175.801 45.5262C175.788 45.3303 175.829 45.1347 175.918 44.9675L178.866 39.4849C178.978 39.2777 179.156 39.1303 179.361 39.075C179.566 39.0197 179.782 39.061 179.962 39.1898L191.844 47.7578C192.023 47.8871 192.15 48.0933 192.198 48.3311C192.246 48.5689 192.21 48.819 192.099 49.0265L189.153 54.5059C189.063 54.6742 188.928 54.8043 188.769 54.8771C188.61 54.9499 188.434 54.9614 188.269 54.91C185.883 54.1738 183.603 53.0352 181.503 51.5307Z" fill="#63D0FF"/>
<path opacity="0.2" d="M191.964 48.9291L191.471 49.8454L183.637 47.8205C183.491 47.7818 183.361 47.6852 183.27 47.5474L178.549 40.4235L179.001 39.5822C179.09 39.4167 179.233 39.299 179.397 39.2548C179.561 39.2106 179.734 39.2434 179.877 39.3461L191.76 47.9141C191.903 48.0178 192.004 48.1827 192.043 48.3729C192.081 48.5631 192.052 48.763 191.964 48.9291Z" fill="black"/>
<path d="M184.027 46.631C183.946 46.5726 183.874 46.4979 183.816 46.4103L176.76 35.7652C176.66 35.6146 176.603 35.4321 176.596 35.2425C176.589 35.0529 176.633 34.8655 176.722 34.706C176.811 34.5464 176.94 34.4224 177.091 34.351C177.243 34.2795 177.41 34.2641 177.57 34.3069L188.081 37.1218C188.25 37.1678 188.402 37.2764 188.514 37.4311L196.177 48.1377C196.283 48.2856 196.347 48.4681 196.358 48.6597C196.37 48.8513 196.33 49.0424 196.243 49.2062C196.157 49.3701 196.028 49.4985 195.876 49.5735C195.723 49.6484 195.554 49.6662 195.392 49.6244L184.274 46.7481C184.186 46.7255 184.103 46.6859 184.027 46.631Z" fill="#63D0FF"/>
<path d="M175.799 40.3111L175.528 40.1163L177.967 35.5814L186.203 41.5207L186.035 41.8331L178.068 36.0887L175.799 40.3111Z" fill="#3F3D56"/>
<path d="M175.495 41.2632C175.847 41.2632 176.132 40.9333 176.132 40.5264C176.132 40.1194 175.847 39.7896 175.495 39.7896C175.144 39.7896 174.859 40.1194 174.859 40.5264C174.859 40.9333 175.144 41.2632 175.495 41.2632Z" fill="#3F3D56"/>
<path d="M214.648 86.8334C222.215 86.8334 228.349 79.7296 228.349 70.9665C228.349 62.2035 222.215 55.0996 214.648 55.0996C207.081 55.0996 200.947 62.2035 200.947 70.9665C200.947 79.7296 207.081 86.8334 214.648 86.8334Z" fill="#2F2E41"/>
<path d="M224.146 79.1937L220.595 81.7074L224.484 89.0766L228.035 86.5629L224.146 79.1937Z" fill="#2F2E41"/>
<path d="M217.043 84.221L213.492 86.7347L217.381 94.1039L220.932 91.5902L217.043 84.221Z" fill="#2F2E41"/>
<path d="M225.799 90.0286C227.434 88.8717 228.455 87.3584 228.08 86.6485C227.706 85.9387 226.077 86.3011 224.443 87.4579C222.808 88.6148 221.787 90.1281 222.161 90.838C222.536 91.5479 224.165 91.1855 225.799 90.0286Z" fill="#2F2E41"/>
<path d="M218.606 94.8846C220.24 93.7277 221.262 92.2144 220.887 91.5046C220.512 90.7947 218.884 91.1571 217.249 92.314C215.614 93.4708 214.593 94.9842 214.968 95.694C215.342 96.4039 216.971 96.0415 218.606 94.8846Z" fill="#2F2E41"/>
<path d="M206.945 68.3065C207.877 67.2277 206.227 63.5655 203.26 60.1266C200.293 56.6877 197.132 54.7744 196.2 55.8531C195.267 56.9318 196.917 60.5941 199.884 64.033C202.851 67.4719 206.012 69.3852 206.945 68.3065Z" fill="#2F2E41"/>
<path d="M233.172 84.4154C234.255 83.5449 233.191 79.6022 230.797 75.6089C228.403 71.6157 225.584 69.0842 224.502 69.9547C223.42 70.8251 224.483 74.7679 226.877 78.7611C229.271 82.7543 232.09 85.2858 233.172 84.4154Z" fill="#2F2E41"/>
<path d="M210.453 71.9303C213.039 71.9303 215.135 69.5024 215.135 66.5075C215.135 63.5125 213.039 61.0846 210.453 61.0846C207.867 61.0846 205.77 63.5125 205.77 66.5075C205.77 69.5024 207.867 71.9303 210.453 71.9303Z" fill="white"/>
<path d="M208.862 66.473C209.724 66.473 210.423 65.6637 210.423 64.6654C210.423 63.667 209.724 62.8577 208.862 62.8577C208 62.8577 207.301 63.667 207.301 64.6654C207.301 65.6637 208 66.473 208.862 66.473Z" fill="#3F3D56"/>
<path d="M204.423 75.5533C203.535 77.2381 204.718 79.5174 207.065 80.6442C209.413 81.7711 212.035 81.3187 212.923 79.634L212.926 79.628C213.812 77.9421 212.092 76.6808 209.744 75.5556C207.396 74.4304 205.309 73.8675 204.423 75.5533Z" fill="white"/>
<path d="M210.051 51.0437C211.274 45.3379 216.675 41.9802 222.113 43.544C227.551 45.1078 230.968 51.001 229.744 56.7067C228.521 62.4125 224.462 62.4309 219.024 60.8671C213.586 59.3032 208.828 56.7494 210.051 51.0437Z" fill="#E6E6E6"/>
<path d="M257.682 112H0.318126C0.233754 112 0.152837 111.961 0.0931766 111.892C0.0335165 111.823 0 111.729 0 111.632C0 111.534 0.0335165 111.44 0.0931766 111.371C0.152837 111.302 0.233754 111.263 0.318126 111.263H257.682C257.766 111.263 257.847 111.302 257.907 111.371C257.966 111.44 258 111.534 258 111.632C258 111.729 257.966 111.823 257.907 111.892C257.847 111.961 257.766 112 257.682 112Z" fill="#CBCBCB"/>
</g>
<defs>
<clipPath id="clip0_13_85">
<rect width="258" height="112" fill="white"/>
</clipPath>
</defs>
</svg>
