<svg width="246" height="155" viewBox="0 0 246 155" fill="none" xmlns="http://www.w3.org/2000/svg">
<g clip-path="url(#clip0_7_100)">
<path d="M110.316 152.24C108.479 152.238 106.671 152.732 105.065 153.676H115.554C113.952 152.733 112.149 152.239 110.316 152.24Z" fill="#E6E6E6"/>
<path d="M130.67 150.805C127.601 150.801 124.606 151.804 122.098 153.676H139.23C136.726 151.806 133.735 150.803 130.67 150.805Z" fill="#E6E6E6"/>
<path d="M245.965 132.633C245.198 117.932 234.033 105.946 220.147 104.942C213.746 104.466 207.387 106.345 202.146 110.261C196.905 114.177 193.104 119.889 191.388 126.429C191.051 126.417 190.714 126.402 190.374 126.402C184.365 126.403 178.517 128.463 173.706 132.273C168.895 136.083 165.379 141.438 163.685 147.537C159.703 145.686 155.253 145.285 151.031 146.396C146.81 147.506 143.057 150.067 140.358 153.676H227.128C237.788 153.676 246.419 144.335 245.984 133.067C245.979 132.923 245.972 132.778 245.965 132.633Z" fill="#E6E6E6"/>
<path d="M81.3358 54.7326C81.3358 54.7326 70.2741 51.0876 71.9722 57.0846C73.6703 63.0816 82.9874 60.0524 82.9874 60.0524L81.3358 54.7326Z" fill="#FFB8B8"/>
<path d="M123.62 32.2233C123.62 32.2233 117.951 24.0283 112.443 32.5358C106.925 41.0599 101.794 48.0577 101.794 48.0577L88.0884 52.7851L80.1592 53.5293L82.3435 60.9868L105.398 57.4488C105.398 57.4488 131.065 41.3198 123.62 32.2233Z" fill="#2F2E41"/>
<path d="M98.3169 77.6068C98.3169 77.6068 89.7052 83.9838 90.2793 89.7535C90.8534 95.5232 94.5852 111.314 94.5852 111.314L102.336 110.099C102.336 110.099 103.197 97.9525 100.326 93.3975L114.105 85.1985L98.3169 77.6068Z" fill="#FFB8B8"/>
<path d="M117.406 92.6384C117.406 92.6384 116.832 103.874 118.267 108.429C119.703 112.984 121.138 129.989 121.138 129.989H129.175C129.175 129.989 132.907 115.11 128.314 108.429C128.314 108.429 126.879 99.6227 130.898 95.3714L117.406 92.6384Z" fill="#FFB8B8"/>
<path d="M115.54 61.5125C115.54 61.5125 96.8816 73.9628 96.8816 77.9105L111.809 90.9682L116.976 84.8949L116.401 94.0049L132.477 97.3452C132.477 97.3452 138.218 74.2665 137.931 73.3555C137.644 72.4445 136.782 59.0831 136.782 59.0831L115.54 61.5125Z" fill="#2F2E41"/>
<path d="M102.336 108.581L94.011 110.403L95.4901 116.835C96.2181 120.001 96.301 123.295 95.7334 126.497C95.7334 126.497 104.345 128.927 104.345 127.712C104.345 126.497 102.336 121.639 102.91 118.298C103.484 114.958 102.336 108.581 102.336 108.581Z" fill="#63D0FF"/>
<path d="M106.642 131.356C106.354 130.141 103.969 124.634 103.87 125.566C103.771 126.497 99.1781 128.016 97.4557 126.194C97.4557 126.194 95.1593 124.068 94.2981 126.194C93.4369 128.319 91.7146 131.963 91.7146 131.963C91.7146 131.963 83.9641 135.911 85.1123 138.037C85.3445 138.467 85.988 138.648 86.8664 138.664C86.8458 138.72 86.835 138.78 86.8346 138.84V139.055C86.8346 139.188 86.8844 139.315 86.973 139.409C87.0616 139.502 87.1818 139.555 87.307 139.555H87.5105C87.6357 139.555 87.7559 139.502 87.8445 139.409C87.9331 139.315 87.9829 139.188 87.9829 139.055V138.84C87.9824 138.763 87.9647 138.686 87.9313 138.617C88.166 138.596 88.4096 138.567 88.66 138.532C88.5937 138.619 88.5574 138.728 88.557 138.84V139.055C88.557 139.188 88.6068 139.315 88.6953 139.409C88.7839 139.502 88.9041 139.555 89.0294 139.555H89.2328C89.3581 139.555 89.4782 139.502 89.5668 139.409C89.6554 139.315 89.7052 139.188 89.7052 139.055V138.84C89.705 138.751 89.6822 138.664 89.6392 138.587C89.5963 138.511 89.5347 138.448 89.4609 138.405C90.1216 138.288 90.8112 138.14 91.4969 137.975C91.4519 138.053 91.4279 138.142 91.4275 138.233V138.448C91.4275 138.58 91.4773 138.708 91.5659 138.801C91.6545 138.895 91.7747 138.948 91.9 138.948H92.1034C92.2287 138.948 92.3488 138.895 92.4374 138.801C92.526 138.708 92.5758 138.58 92.5758 138.448V138.233C92.5757 138.136 92.5491 138.042 92.4993 137.961C92.4494 137.88 92.3784 137.816 92.2949 137.777C92.8092 137.644 93.3133 137.506 93.793 137.369C93.7482 137.446 93.7244 137.535 93.724 137.625V137.841C93.724 137.973 93.7738 138.1 93.8624 138.194C93.951 138.288 94.0711 138.34 94.1964 138.34H94.3998C94.5251 138.34 94.6453 138.288 94.7339 138.194C94.8224 138.1 94.8722 137.973 94.8722 137.841V137.625C94.872 137.519 94.8396 137.416 94.7798 137.33C94.7201 137.245 94.636 137.182 94.54 137.151C96.2258 136.648 97.4557 136.215 97.4557 136.215C97.4557 136.215 98.884 135.665 100.613 134.922V135.108C100.613 135.24 100.663 135.367 100.752 135.461C100.84 135.555 100.96 135.607 101.086 135.607H101.289C101.414 135.607 101.535 135.555 101.623 135.461C101.712 135.367 101.762 135.24 101.762 135.108V134.892C101.761 134.817 101.745 134.742 101.713 134.674C101.682 134.606 101.636 134.547 101.579 134.5C101.926 134.346 102.276 134.187 102.623 134.026V134.197C102.623 134.329 102.673 134.456 102.761 134.55C102.85 134.644 102.97 134.696 103.095 134.696H103.299C103.424 134.696 103.544 134.644 103.633 134.55C103.721 134.456 103.771 134.329 103.771 134.197V133.981C103.771 133.901 103.753 133.822 103.717 133.751C103.682 133.679 103.631 133.618 103.569 133.572C103.943 133.387 104.304 133.203 104.637 133.022C104.635 133.038 104.632 133.054 104.632 133.07V133.286C104.632 133.418 104.682 133.545 104.771 133.639C104.859 133.733 104.979 133.785 105.105 133.785H105.308C105.433 133.785 105.553 133.733 105.642 133.639C105.731 133.545 105.78 133.418 105.78 133.286V133.07C105.78 132.955 105.743 132.844 105.674 132.754C105.605 132.665 105.509 132.604 105.402 132.581C106.205 132.088 106.711 131.65 106.642 131.356Z" fill="#2F2E41"/>
<path d="M129.75 128.623L120.656 128.016C120.656 128.016 121.207 138.037 120.105 141.377C119.002 144.717 119.553 145.932 119.553 145.932L127.545 146.539L129.75 128.623Z" fill="#63D0FF"/>
<path d="M129.861 150.771C129.82 149.52 128.573 143.607 128.292 144.496C128.012 145.386 123.22 145.858 121.895 143.696C121.895 143.696 120.068 141.11 118.807 142.999C117.546 144.888 115.143 148.072 115.143 148.072C115.143 148.072 106.785 150.224 107.489 152.556C107.631 153.028 108.225 153.347 109.081 153.556C109.049 153.607 109.027 153.663 109.015 153.722L108.972 153.932C108.946 154.062 108.97 154.197 109.038 154.308C109.106 154.419 109.213 154.497 109.336 154.525L109.535 154.57C109.657 154.597 109.785 154.572 109.89 154.5C109.995 154.428 110.069 154.315 110.095 154.185L110.138 153.975C110.153 153.899 110.15 153.82 110.131 153.746C110.365 153.776 110.609 153.802 110.861 153.823C110.779 153.894 110.722 153.992 110.699 154.101L110.657 154.312C110.631 154.442 110.654 154.577 110.723 154.688C110.791 154.799 110.898 154.877 111.02 154.905L111.219 154.95C111.342 154.977 111.47 154.952 111.575 154.88C111.68 154.808 111.754 154.695 111.78 154.565L111.822 154.355C111.84 154.268 111.834 154.177 111.808 154.093C111.781 154.009 111.733 153.933 111.669 153.875C112.338 153.907 113.042 153.914 113.745 153.904C113.686 153.97 113.645 154.052 113.626 154.141L113.584 154.351C113.558 154.481 113.581 154.616 113.65 154.727C113.718 154.838 113.825 154.916 113.948 154.944L114.146 154.989C114.269 155.017 114.397 154.992 114.502 154.919C114.607 154.847 114.681 154.734 114.707 154.604L114.749 154.394C114.768 154.299 114.761 154.201 114.728 154.111C114.695 154.021 114.639 153.943 114.565 153.886C115.094 153.87 115.614 153.846 116.11 153.817C116.051 153.883 116.01 153.965 115.992 154.053L115.95 154.264C115.924 154.393 115.947 154.529 116.015 154.64C116.084 154.751 116.191 154.829 116.313 154.857L116.512 154.901C116.635 154.929 116.763 154.904 116.868 154.832C116.973 154.76 117.047 154.647 117.073 154.517L117.115 154.306C117.136 154.202 117.125 154.094 117.083 153.997C117.041 153.901 116.971 153.821 116.884 153.769C118.632 153.649 119.92 153.497 119.92 153.497C119.92 153.497 121.425 153.274 123.263 152.929L123.226 153.11C123.2 153.24 123.224 153.375 123.292 153.486C123.36 153.598 123.467 153.676 123.59 153.703L123.789 153.748C123.911 153.776 124.039 153.751 124.144 153.679C124.249 153.607 124.323 153.493 124.349 153.364L124.392 153.153C124.406 153.079 124.405 153.002 124.387 152.929C124.37 152.855 124.337 152.787 124.29 152.729C124.66 152.655 125.034 152.577 125.405 152.495L125.371 152.663C125.345 152.792 125.369 152.927 125.437 153.039C125.505 153.15 125.612 153.228 125.735 153.255L125.933 153.3C126.056 153.328 126.184 153.303 126.289 153.231C126.394 153.159 126.468 153.045 126.494 152.916L126.536 152.705C126.552 152.627 126.55 152.545 126.529 152.468C126.509 152.39 126.471 152.319 126.419 152.261C126.822 152.163 127.211 152.061 127.572 151.958C127.568 151.973 127.562 151.988 127.558 152.004L127.516 152.215C127.49 152.344 127.513 152.48 127.582 152.591C127.65 152.702 127.757 152.78 127.879 152.808L128.078 152.853C128.201 152.88 128.329 152.855 128.434 152.783C128.539 152.711 128.613 152.598 128.639 152.468L128.681 152.258C128.704 152.145 128.689 152.027 128.639 151.925C128.59 151.822 128.508 151.741 128.408 151.695C129.29 151.39 129.871 151.074 129.861 150.771Z" fill="#2F2E41"/>
<path d="M115.54 22.0357C120.138 22.0357 123.865 18.0929 123.865 13.2293C123.865 8.36571 120.138 4.42297 115.54 4.42297C110.943 4.42297 107.216 8.36571 107.216 13.2293C107.216 18.0929 110.943 22.0357 115.54 22.0357Z" fill="#FFB8B8"/>
<path d="M123.004 12.3184C123.004 12.3184 127.597 18.3917 129.893 18.088L119.846 26.2871C119.846 26.2871 118.698 21.1247 117.263 20.5174C115.827 19.91 123.004 12.3184 123.004 12.3184Z" fill="#FFB8B8"/>
<path d="M140.945 57.413C140.945 57.413 140.944 23.9044 135.63 21.0179C130.32 18.133 126.807 16.4865 126.807 16.4865C126.729 17.586 126.433 18.6559 125.94 19.6271C125.447 20.5983 124.766 21.4492 123.942 22.1247C122.181 23.5628 120.427 24.7553 119.447 24.7591L119.416 24.6169L119.296 24.2559L116.401 29.0201C116.401 29.0201 113.818 29.6274 112.957 31.4494C112.491 32.4351 114.688 42.3581 113.387 51.3396C112.284 58.9597 107.634 65.8385 107.503 66.6748C107.28 68.0885 112.931 64.3846 115.476 62.653C115.513 62.6975 115.54 62.7271 115.54 62.7271C115.54 62.7271 114.105 63.3345 116.976 62.4235C118.602 61.9073 120.873 61.8787 122.536 61.9507C122.534 62.4783 122.546 62.8975 122.573 63.1826C122.86 66.2193 137.213 70.4707 139.222 69.5596C141.232 68.6486 140.945 57.413 140.945 57.413Z" fill="#2F2E41"/>
<path d="M130.898 68.9523C130.898 68.9523 122.286 77.1514 128.027 78.6697C133.768 80.188 136.065 70.167 136.065 70.167L130.898 68.9523Z" fill="#FFB8B8"/>
<path d="M120.851 90.209C120.851 90.209 124.87 86.2613 127.166 88.387C129.463 90.5127 130.898 92.031 130.898 92.031C130.898 92.031 124.296 87.7797 120.851 90.209Z" fill="#63D0FF"/>
<path d="M121.895 137.444C121.895 137.444 124.16 135.219 125.454 136.417C126.749 137.615 127.558 138.471 127.558 138.471C127.558 138.471 123.836 136.075 121.895 137.444Z" fill="#2F2E41"/>
<path d="M96.5179 116.748C96.5179 116.748 98.0729 113.922 99.6408 114.669C101.209 115.417 102.218 115.987 102.218 115.987C102.218 115.987 97.9987 114.84 96.5179 116.748Z" fill="#2F2E41"/>
<path d="M138.776 25.1843C135.93 19.1335 127.272 22.4336 128.679 29.026C128.7 29.1242 128.722 29.2235 128.745 29.3237C130.228 35.5641 132.651 41.5111 135.921 46.9364L132.764 61.8161L129.319 69.4078L136.495 71.2298L145.394 48.4547C145.394 48.4547 142.94 34.0387 138.776 25.1843Z" fill="#2F2E41"/>
<path opacity="0.2" d="M134.63 47.3918L129.175 69.2559L133.768 58.9312L134.63 47.3918Z" fill="black"/>
<path d="M120.768 2.9642C120.768 2.9642 116.167 -2.16064 111.535 1.06679C106.903 4.29422 104.706 7.42935 105.16 9.61229C105.614 11.7952 106.958 14.8316 106.958 14.8316C106.958 14.8316 106.123 10.3092 109.958 9.97451C113.794 9.63984 119.092 6.95491 119.092 6.95491L122.676 15.0519C122.676 15.0519 123.183 13.1755 124.588 13.7137C125.993 14.2519 124.904 3.56446 120.768 2.9642Z" fill="#2F2E41"/>
<path d="M91.284 118.754C91.2837 119.523 91.2232 120.291 91.1032 121.049V121.053C90.7735 123.093 90.01 125.028 88.8701 126.711C87.7303 128.394 86.2439 129.781 84.5233 130.768C82.8026 131.754 80.8926 132.314 78.9374 132.405C76.9822 132.497 75.033 132.117 73.2368 131.295H73.2339C72.7024 131.053 72.1874 130.772 71.6924 130.454C70.1583 129.474 68.8334 128.168 67.8017 126.618C66.7699 125.068 66.0538 123.308 65.6987 121.45C65.5322 120.562 65.4486 119.659 65.4489 118.754C65.4489 118.341 65.4661 117.931 65.5006 117.527V117.524C65.7984 114.037 67.3502 110.804 69.8358 108.492C72.3213 106.18 75.5509 104.965 78.8582 105.099C82.1656 105.233 85.2982 106.704 87.6098 109.21C89.9214 111.716 91.2356 115.065 91.2811 118.566V118.569C91.284 118.632 91.284 118.69 91.284 118.754Z" fill="#63D0FF"/>
<path d="M81.5462 114.19H75.7608L72.868 108.89L74.8301 105.293L74.9448 105.26C77.4287 104.558 80.0521 104.636 82.4951 105.483L82.5991 105.52L84.4391 108.89L81.5462 114.19ZM76.0921 113.582H81.2149L83.7761 108.89L82.2119 106.025C79.9418 105.263 77.5153 105.19 75.2081 105.815L73.5309 108.89L76.0921 113.582Z" fill="white"/>
<path d="M81.2592 125.122H75.4738L72.5809 119.822L75.4738 114.521H81.2592L84.152 119.822L81.2592 125.122ZM75.8051 124.515H80.9278L83.4891 119.822L80.9278 115.129H75.8051L73.2439 119.822L75.8051 124.515Z" fill="white"/>
<path d="M78.3665 132.722C76.5622 132.726 74.7768 132.335 73.1223 131.574L72.8273 131.438L75.7607 126.06H81.5462L84.356 131.209L84.0769 131.35C82.2959 132.258 80.3435 132.727 78.3665 132.722ZM73.6481 131.148C75.2264 131.82 76.9167 132.148 78.6177 132.113C80.3186 132.077 81.9953 131.679 83.5474 130.941L81.2149 126.667H76.0923L73.6481 131.148Z" fill="white"/>
<path d="M91.0191 119.656H85.2337L82.3408 114.357L85.2335 109.055H87.8679L87.9529 109.149C90.2374 111.692 91.5289 115.054 91.5683 118.562V118.65L91.0191 119.656ZM85.565 119.048H90.6877L90.993 118.489C90.9376 115.207 89.7363 112.063 87.6204 109.662H85.5652L83.0038 114.357L85.565 119.048Z" fill="white"/>
<path d="M85.1539 130.743L82.3408 125.592L85.2335 120.29H91.0188L91.3903 120.967L91.3862 121.103C91.0726 123.037 90.3782 124.88 89.348 126.511C88.3178 128.143 86.9749 129.527 85.4064 130.574L85.1539 130.743ZM83.0038 125.592L85.3504 129.889C86.7721 128.889 87.988 127.596 88.925 126.087C89.862 124.578 90.5008 122.884 90.803 121.107L90.688 120.897H85.5652L83.0038 125.592Z" fill="white"/>
<path d="M71.7946 130.874L71.544 130.714C69.9764 129.712 68.6224 128.376 67.5679 126.792C66.5133 125.208 65.7809 123.409 65.4172 121.51L65.3959 121.397L66.0009 120.29H71.7864L74.6792 125.592L71.7946 130.874ZM66.0019 121.502C66.3505 123.246 67.0245 124.898 67.9844 126.363C68.9443 127.827 70.1708 129.074 71.592 130.031L74.0162 125.592L71.4548 120.897H66.3322L66.0019 121.502Z" fill="white"/>
<path d="M71.7863 119.048H66.001L65.2136 117.609V117.527C65.497 114.086 66.9793 110.878 69.3727 108.528L69.4554 108.447H71.7864L74.6791 113.749L71.7863 119.048ZM66.3321 118.441H71.4549L74.0162 113.749L71.4548 109.055H69.6819C67.4673 111.266 66.0861 114.252 65.7947 117.458L66.3321 118.441Z" fill="white"/>
</g>
<defs>
<clipPath id="clip0_7_100">
<rect width="246" height="155" fill="white"/>
</clipPath>
</defs>
</svg>
