<svg width="165" height="124" viewBox="0 0 165 124" fill="none" xmlns="http://www.w3.org/2000/svg">
<path d="M160.786 119.775L159.157 120.556L155.703 113.853L158.108 112.7L160.786 119.775Z" fill="#FFB6B6"/>
<path d="M147.321 121.51L145.55 121.51L144.707 113.82H147.321L147.321 121.51Z" fill="#FFB6B6"/>
<path d="M147.383 123.59L141.936 123.59V123.513C141.936 122.88 142.16 122.273 142.557 121.825C142.955 121.378 143.494 121.126 144.056 121.126L145.051 120.277L146.908 121.126L147.383 121.126L147.383 123.59Z" fill="#2F2E41"/>
<path d="M161.777 121.106L156.766 123.51L156.739 123.439C156.519 122.856 156.513 122.199 156.723 121.612C156.933 121.025 157.341 120.556 157.858 120.308L158.478 119.087L160.482 119.049L160.919 118.839L161.777 121.106Z" fill="#2F2E41"/>
<path d="M145.583 75.9944L142.891 94.4459L143.624 97.1955L142.663 99.1429L144.074 116.245L143.501 117.665L145.102 118.777H148.36L148.533 103.294L149.338 101.021V99.768L150.976 90.3271L151.278 101.126L151.755 103.403L151.354 105.024L151.877 106.16L156.36 116.995H160.013L159.731 114.544C160.385 114.171 158.748 113.081 158.591 112.274L159.129 110.912L158.591 108.338L158.097 103.31L158.618 92.6946L158.373 78.4003C157.146 76.5491 155.785 75.1214 154.099 74.7216L145.583 75.9944Z" fill="#2F2E41"/>
<path d="M152.139 51.6949C154.178 51.6949 155.831 49.8343 155.831 47.539C155.831 45.2438 154.178 43.3831 152.139 43.3831C150.1 43.3831 148.447 45.2438 148.447 47.539C148.447 49.8343 150.1 51.6949 152.139 51.6949Z" fill="#FFB6B6"/>
<path d="M136.917 80.3539C136.871 80.1205 136.871 79.8786 136.917 79.6452C136.963 79.4118 137.054 79.1926 137.183 79.003C137.313 78.8135 137.478 78.6582 137.666 78.5481C137.855 78.4379 138.062 78.3757 138.275 78.3657L139.762 72.8003L141.481 75.1187L139.805 80.0483C139.797 80.4507 139.657 80.8355 139.413 81.1298C139.169 81.4242 138.838 81.6075 138.482 81.6452C138.126 81.6829 137.77 81.5723 137.481 81.3343C137.193 81.0963 136.992 80.7475 136.917 80.3539Z" fill="#FFB6B6"/>
<path d="M146.565 57.4781L145.898 56.1074L145.039 56.4301C145.039 56.4301 144.091 57.1188 142.763 59.7188C142.149 60.9213 140.822 68.6325 140.822 68.6325L137.719 77.8803L140.882 78.4823L143.522 70.861L146.581 63.5675L146.565 57.4781Z" fill="#63D0FF"/>
<path d="M152.002 75.9362C154.602 75.9362 157.224 76.5123 158.298 78.5719C158.27 78.1241 158.2 77.3475 158.127 76.6351L157.858 74.7208L158.13 72.9656L158.49 72.5604L157.846 71.8348L158.285 68.1709L159.737 59.5398C159.851 58.8608 159.762 58.1585 159.485 57.5421C159.207 56.9258 158.756 56.4299 158.203 56.1316L156.808 55.3767L154.547 53.0163L150.458 52.9819L149.124 54.9343L145.612 56.2771L146.201 70.0052L145.815 71.0201C145.902 71.1097 146.084 71.301 146.183 71.4242C146.323 71.5986 146.145 72.4961 146.026 73.0155L145.863 74.3994L146.377 74.8126L145.709 75.7008L145.575 76.8283C146.238 76.6517 149.106 75.9362 152.002 75.9362Z" fill="#63D0FF"/>
<path d="M153.083 51.4944C153.099 51.4544 153.116 51.4141 153.132 51.3738C153.125 51.374 153.119 51.375 153.113 51.3752L153.083 51.4944Z" fill="#2F2E41"/>
<path d="M155.933 43.5721C155.758 43.3859 155.53 43.275 155.29 43.2588C155.051 43.2675 154.809 43.5102 154.858 43.7732C154.42 42.8992 153.722 42.227 152.887 41.8746C152.052 41.5222 151.133 41.5121 150.293 41.846C149.699 42.0817 149.117 42.5531 148.981 43.2446C148.968 43.4261 148.92 43.6023 148.84 43.7609C148.771 43.8456 148.682 43.9059 148.583 43.9341C148.484 43.9623 148.379 43.9573 148.283 43.9198L148.277 43.9178C148.244 43.9051 148.208 43.9039 148.175 43.9142C148.141 43.9246 148.111 43.9461 148.088 43.976C148.065 44.0058 148.051 44.0426 148.047 44.0817C148.043 44.1208 148.05 44.1602 148.066 44.195L148.234 44.5475C148.022 44.6006 147.803 44.5953 147.593 44.5321C147.558 44.5219 147.522 44.524 147.488 44.5381C147.454 44.5523 147.425 44.5779 147.405 44.6113C147.385 44.6448 147.374 44.6845 147.375 44.7249C147.375 44.7654 147.387 44.8047 147.408 44.8374C147.687 45.2671 148.051 45.6176 148.472 45.8609C148.892 46.1042 149.358 46.2337 149.83 46.239C150.501 46.2344 151.179 45.9742 151.832 46.1478C152.084 46.215 152.32 46.345 152.522 46.5282C152.725 46.7114 152.888 46.9433 153 47.2067C153.112 47.4702 153.17 47.7586 153.17 48.0507C153.171 48.3428 153.113 48.6313 153.001 48.895C153.202 48.648 153.589 48.7065 153.794 48.9486C153.889 49.0782 153.959 49.2283 154 49.3895C154.04 49.5507 154.052 49.7197 154.032 49.8859C153.977 50.395 153.843 50.8892 153.635 51.3456C154.429 51.3181 155.195 51.0173 155.832 50.4836C156.468 49.95 156.944 49.2094 157.195 48.3617C157.445 47.514 157.459 46.6002 157.233 45.7437C157.008 44.8871 156.554 44.1291 155.933 43.5721Z" fill="#2F2E41"/>
<path d="M36.6143 28.0557C41.6837 28.0557 45.7932 23.4298 45.7932 17.7233C45.7932 12.0169 41.6837 7.39093 36.6143 7.39093C31.5449 7.39093 27.4354 12.0169 27.4354 17.7233C27.4354 23.4298 31.5449 28.0557 36.6143 28.0557Z" fill="#63D0FF"/>
<path d="M10.8161 48.4591C6.21039 36.9915 6.3802 22.4557 13.528 12.7788C15.9194 26.1974 22.4502 38.2313 31.9648 46.7515C35.6448 50.0224 40.0404 53.2291 41.0457 58.3845C41.6713 61.5923 40.7846 64.9852 39.2517 67.7795C37.7187 70.5739 35.582 72.8725 33.4695 75.1378L33.2325 75.913C24.0405 68.7491 15.4217 59.9268 10.8161 48.4591Z" fill="#F2F2F2"/>
<path d="M13.727 12.9187C12.082 23.0583 13.304 33.8552 17.3024 43.1449C18.1668 45.1534 19.199 47.1061 20.5809 48.7214C21.9635 50.3375 23.6165 51.3548 25.5181 51.9798C27.2566 52.5511 29.0936 52.909 30.6784 53.9461C32.3489 55.0392 33.3856 56.8735 33.7894 58.977C34.2835 61.5507 33.9267 64.1707 33.4986 66.7192C33.0232 69.5489 32.4897 72.4795 33.1785 75.324C33.2619 75.6687 32.782 75.7943 32.6987 75.4502C31.5003 70.5012 33.8302 65.6201 33.5045 60.6444C33.3526 58.3226 32.5781 56.0384 30.8096 54.6932C29.2631 53.5168 27.369 53.146 25.6044 52.5846C23.7514 51.9951 22.0874 51.0947 20.6714 49.6011C19.2229 48.0733 18.1207 46.1619 17.2145 44.1871C15.1707 39.7336 13.8233 34.8269 13.1105 29.8867C12.2908 24.2086 12.3401 18.4145 13.2561 12.755C13.3129 12.4048 13.7834 12.5708 13.727 12.9187Z" fill="white"/>
<path d="M15.8612 40.2025C14.3691 40.7408 12.7556 40.6645 11.3088 39.9873C9.8621 39.3101 8.67631 38.076 7.96324 36.5055C7.81992 36.1872 8.25264 35.9215 8.39615 36.2403C9.05776 37.7041 10.1624 38.8535 11.5108 39.4811C12.8591 40.1086 14.3624 40.1729 15.7491 39.6624C16.0506 39.5518 16.1609 40.0926 15.8612 40.2025Z" fill="white"/>
<path d="M24.6028 51.8207C26.0938 48.6297 26.4615 44.9234 25.6327 41.4407C25.5503 41.0957 26.0302 40.97 26.1125 41.3145C26.969 44.9405 26.5793 48.7967 25.0213 52.1135C24.8726 52.4295 24.4549 52.1351 24.6028 51.8207Z" fill="white"/>
<path d="M12.9243 24.3887C13.5402 24.3159 14.1303 24.072 14.6418 23.6789C15.1532 23.2859 15.5699 22.756 15.8545 22.1368C15.9996 21.8188 16.4171 22.1137 16.273 22.4296C15.9558 23.112 15.495 23.6966 14.9307 24.1322C14.3665 24.5679 13.7161 24.8414 13.0363 24.9289C12.9729 24.9432 12.907 24.9297 12.852 24.8913C12.797 24.8528 12.7571 24.7923 12.7404 24.7219C12.7259 24.6503 12.7371 24.5751 12.7715 24.5127C12.8059 24.4504 12.8608 24.4058 12.9243 24.3887Z" fill="white"/>
<path d="M51.3816 12.8911C51.296 13.0926 51.2105 13.2941 51.1269 13.4996C49.989 16.2148 49.0489 19.0295 48.316 21.9161C48.2562 22.1382 48.1985 22.3644 48.1445 22.588C46.4446 29.5635 45.9099 36.8337 46.5676 44.0289C46.8316 46.8918 47.2888 49.728 47.9351 52.5128C48.8279 56.3586 50.0678 60.4486 49.788 64.2888C49.7628 64.6898 49.7156 65.0887 49.6466 65.4831L34.091 76.1784C34.0448 76.1827 34.0006 76.1911 33.9543 76.1956L33.3505 76.6546C33.3083 76.5136 33.2672 76.3663 33.2249 76.2253C33.2001 76.1436 33.1788 76.0596 33.154 75.9779C33.1385 75.9227 33.1232 75.8673 33.1065 75.8185C33.1013 75.8002 33.0963 75.7817 33.0932 75.7673C33.0765 75.7185 33.0656 75.6711 33.051 75.6263C32.8191 74.8039 32.592 73.9781 32.3695 73.1491C32.3674 73.1451 32.3674 73.1451 32.3687 73.1388C30.6883 66.8174 29.4619 60.2826 29.1557 53.746C29.1465 53.5493 29.135 53.3488 29.133 53.1472C29.0095 50.2 29.1001 47.2463 29.4041 44.3156C29.5751 42.7115 29.8182 41.1182 30.1324 39.5417C30.9511 35.4702 32.3336 31.5689 34.2293 27.981C38.0093 20.8291 43.7791 15.1177 50.8407 13.0436C51.0214 12.9907 51.1987 12.9401 51.3816 12.8911Z" fill="#F2F2F2"/>
<path d="M51.4672 13.1374C44.7305 20.1185 39.9315 29.5673 38.1553 39.6945C37.7713 41.884 37.551 44.1426 37.7904 46.369C38.03 48.5963 38.8057 50.5289 39.9898 52.3167C41.0722 53.9511 42.3476 55.4818 43.0583 57.3839C43.8074 59.3889 43.654 61.556 42.8514 63.5092C41.8694 65.8991 40.1831 67.7491 38.4782 69.4939C36.5853 71.431 34.5918 73.4094 33.6203 76.1474C33.5026 76.4792 33.0522 76.2542 33.1697 75.9229C34.8599 71.1593 39.3309 68.841 41.7321 64.6475C42.8526 62.6907 43.456 60.342 42.7635 58.0694C42.1578 56.082 40.8439 54.5023 39.7351 52.8581C38.571 51.1316 37.7239 49.2849 37.3922 47.1327C37.0528 44.9311 37.1951 42.658 37.5277 40.4671C38.2778 35.526 39.8265 30.6952 41.8996 26.2676C44.2821 21.1784 47.4204 16.5855 51.1788 12.6876C51.4115 12.4464 51.6984 12.8979 51.4672 13.1374Z" fill="white"/>
<path d="M38.5784 36.3684C37.0991 35.787 35.8516 34.6326 35.0587 33.1113C34.2658 31.5901 33.979 29.8011 34.2497 28.0639C34.3055 27.7126 34.7931 27.7938 34.7372 28.1455C34.4825 29.7627 34.7497 31.4291 35.4907 32.844C36.2316 34.2589 37.3975 35.329 38.7778 35.8612C39.0777 35.9773 38.8765 36.4838 38.5784 36.3684Z" fill="white"/>
<path d="M39.344 51.5693C42.2412 50.032 44.5172 47.3218 45.7181 43.9794C45.8369 43.6481 46.2873 43.873 46.1687 44.2039C44.9132 47.6795 42.5396 50.4944 39.5216 52.0867C39.2338 52.2383 39.0578 51.7201 39.344 51.5693Z" fill="white"/>
<path d="M44.6915 21.7516C45.2222 22.1108 45.8239 22.316 46.4425 22.3488C47.0611 22.3816 47.6772 22.2409 48.2356 21.9394C48.5215 21.7839 48.6972 22.3023 48.4132 22.4568C47.7949 22.7867 47.1143 22.9411 46.4308 22.9066C45.7472 22.8721 45.0816 22.6497 44.4921 22.2588C44.4338 22.2272 44.3883 22.1718 44.365 22.1038C44.3417 22.0359 44.3422 21.9605 44.3665 21.8929C44.3932 21.8259 44.4423 21.7735 44.5032 21.747C44.564 21.7206 44.6317 21.7222 44.6915 21.7516Z" fill="white"/>
<path d="M88.2069 35.8982C83.6012 24.4305 83.771 9.89475 90.9189 0.217865C93.3102 13.6364 99.841 25.6704 109.356 34.1905C113.036 37.4614 117.431 40.6681 118.437 45.8235C119.062 49.0313 118.175 52.4243 116.643 55.2186C115.11 58.0129 112.973 60.3115 110.86 62.5769L110.623 63.3521C101.431 56.1882 92.8126 47.3658 88.2069 35.8982Z" fill="#F2F2F2"/>
<path d="M91.1178 0.357766C89.4728 10.4974 90.6949 21.2942 94.6932 30.584C95.5576 32.5924 96.5898 34.5451 97.9718 36.1604C99.3543 37.7765 101.007 38.7938 102.909 39.4188C104.647 39.9902 106.484 40.348 108.069 41.3851C109.74 42.4783 110.776 44.3125 111.18 46.416C111.674 48.9897 111.317 51.6097 110.889 54.1582C110.414 56.9879 109.881 59.9185 110.569 62.7631C110.653 63.1077 110.173 63.2333 110.089 62.8892C108.891 57.9402 111.221 53.0591 110.895 48.0834C110.743 45.7617 109.969 43.4774 108.2 42.1322C106.654 40.9559 104.76 40.585 102.995 40.0236C101.142 39.4342 99.4782 38.5338 98.0622 37.0402C96.6137 35.5123 95.5116 33.6009 94.6053 31.6262C92.5615 27.1726 91.2142 22.2659 90.5014 17.3257C89.6817 11.6476 89.7309 5.85349 90.6469 0.194069C90.7037 -0.156187 91.1743 0.00980743 91.1178 0.357766Z" fill="white"/>
<path d="M93.2521 27.6416C91.76 28.1799 90.1465 28.1036 88.6997 27.4264C87.253 26.7491 86.0672 25.5151 85.3541 23.9446C85.2108 23.6262 85.6435 23.3606 85.787 23.6793C86.4486 25.1432 87.5533 26.2926 88.9017 26.9201C90.25 27.5477 91.7532 27.6119 93.14 27.1014C93.4415 26.9909 93.5518 27.5316 93.2521 27.6416Z" fill="white"/>
<path d="M101.994 39.2598C103.485 36.0687 103.852 32.3624 103.024 28.8797C102.941 28.5347 103.421 28.409 103.503 28.7536C104.36 32.3795 103.97 36.2357 102.412 39.5525C102.263 39.8685 101.846 39.5741 101.994 39.2598Z" fill="white"/>
<path d="M90.3151 11.8278C90.931 11.7549 91.5212 11.511 92.0326 11.1179C92.5441 10.7249 92.9608 10.195 93.2453 9.57585C93.3904 9.25786 93.808 9.55268 93.6639 9.8686C93.3466 10.551 92.8858 11.1356 92.3216 11.5713C91.7574 12.0069 91.107 12.2805 90.4272 12.3679C90.3637 12.3822 90.2978 12.3688 90.2428 12.3303C90.1879 12.2919 90.148 12.2313 90.1312 12.1609C90.1167 12.0893 90.1279 12.0142 90.1623 11.9518C90.1968 11.8894 90.2517 11.8448 90.3151 11.8278Z" fill="white"/>
<path d="M128.772 0.33017C128.687 0.531627 128.601 0.733087 128.518 0.938663C127.38 3.65383 126.44 6.46857 125.707 9.35511C125.647 9.57727 125.589 9.80343 125.535 10.0271C123.835 17.0026 123.301 24.2727 123.958 31.468C124.222 34.3309 124.68 37.167 125.326 39.9518C126.219 43.7977 127.459 47.8876 127.179 51.7278C127.154 52.1288 127.106 52.5277 127.037 52.9222L111.482 63.6174C111.436 63.6217 111.391 63.6302 111.345 63.6346L110.741 64.0936C110.699 63.9526 110.658 63.8053 110.616 63.6643C110.591 63.5827 110.57 63.4986 110.545 63.4169C110.529 63.3617 110.514 63.3064 110.497 63.2575C110.492 63.2392 110.487 63.2207 110.484 63.2063C110.467 63.1575 110.456 63.1102 110.442 63.0653C110.21 62.2429 109.983 61.4171 109.76 60.5882C109.758 60.5842 109.758 60.5842 109.76 60.5778C108.079 54.2564 106.853 47.7216 106.547 41.185C106.537 40.9883 106.526 40.7878 106.524 40.5862C106.4 37.639 106.491 34.6853 106.795 31.7547C106.966 30.1506 107.209 28.5572 107.523 26.9808C108.342 22.9092 109.724 19.008 111.62 15.42C115.4 8.26816 121.17 2.55671 128.232 0.482667C128.412 0.429757 128.59 0.379082 128.772 0.33017Z" fill="#F0F0F0"/>
<path d="M128.858 0.576451C122.121 7.55749 117.322 17.0064 115.546 27.1335C115.162 29.323 114.942 31.5817 115.181 33.808C115.421 36.0353 116.197 37.9679 117.381 39.7557C118.463 41.3901 119.738 42.9208 120.449 44.823C121.198 46.8279 121.045 48.9951 120.242 50.9483C119.26 53.3381 117.574 55.1882 115.869 56.9329C113.976 58.8701 111.983 60.8484 111.011 63.5865C110.893 63.9182 110.443 63.6932 110.561 63.362C112.251 58.5983 116.722 56.2801 119.123 52.0865C120.243 50.1297 120.847 47.781 120.154 45.5084C119.549 43.5211 118.235 41.9413 117.126 40.2971C115.962 38.5706 115.115 36.7239 114.783 34.5717C114.444 32.3701 114.586 30.097 114.919 27.9061C115.669 22.9651 117.217 18.1342 119.29 13.7066C121.673 8.61743 124.811 4.02453 128.57 0.126617C128.802 -0.114531 129.089 0.33688 128.858 0.576451Z" fill="white"/>
<path d="M115.969 23.8074C114.49 23.226 113.242 22.0716 112.45 20.5504C111.657 19.0291 111.37 17.2402 111.641 15.5029C111.696 15.1516 112.184 15.2328 112.128 15.5846C111.873 17.2017 112.141 18.8682 112.882 20.283C113.623 21.6979 114.788 22.768 116.169 23.3002C116.469 23.4163 116.267 23.9228 115.969 23.8074Z" fill="white"/>
<path d="M116.735 39.0084C119.632 37.471 121.908 34.7609 123.109 31.4185C123.228 31.0872 123.678 31.3121 123.56 31.643C122.304 35.1186 119.93 37.9334 116.912 39.5258C116.625 39.6773 116.449 39.1591 116.735 39.0084Z" fill="white"/>
<path d="M122.082 9.19062C122.613 9.54984 123.215 9.75506 123.833 9.78785C124.452 9.82064 125.068 9.67996 125.626 9.37846C125.912 9.22288 126.088 9.74128 125.804 9.89585C125.186 10.2257 124.505 10.3802 123.822 10.3456C123.138 10.3111 122.472 10.0887 121.883 9.69783C121.825 9.66623 121.779 9.61082 121.756 9.54286C121.733 9.47491 121.733 9.3995 121.757 9.33197C121.784 9.26497 121.833 9.21253 121.894 9.18606C121.955 9.15959 122.023 9.16123 122.082 9.19062Z" fill="white"/>
<path d="M29.5051 120.946L31.2053 122.428L37.8158 123.719L45.1633 103.16C45.1633 103.16 49.6627 87.3151 62.2613 90.5567L102.756 89.7463C102.756 89.7463 115.19 88.3119 117.245 94.9125C117.634 96.1627 128.133 123.782 128.133 123.782L135.495 122.613L134.613 99.0657L117.129 53.3803L86.7384 51.2442L55.4221 53.6842L29.5051 120.946Z" fill="#3F3D56"/>
<path d="M63.1611 91.9748C69.6221 91.9748 74.8598 86.079 74.8598 78.8061C74.8598 71.5332 69.6221 65.6373 63.1611 65.6373C56.7002 65.6373 51.4625 71.5332 51.4625 78.8061C51.4625 86.079 56.7002 91.9748 63.1611 91.9748Z" fill="#2F2E41"/>
<path d="M102.397 91.9748C108.857 91.9748 114.095 86.079 114.095 78.8061C114.095 71.5332 108.857 65.6373 102.397 65.6373C95.9356 65.6373 90.6979 71.5332 90.6979 78.8061C90.6979 86.079 95.9356 91.9748 102.397 91.9748Z" fill="#2F2E41"/>
<path d="M49.4828 35.6531L54.2996 34.5899C54.2996 34.5899 90.5661 28.7648 113.489 35.6531L111.755 41.1232L51.1026 40.718L49.4828 35.6531Z" fill="#E6E6E6"/>
<path d="M98.381 63.9152H67.6031C63.866 63.9152 60.6363 61.0024 59.9234 56.9892L56.5551 38.0254C56.4806 37.6115 56.4836 37.1847 56.5639 36.7723C56.6441 36.3598 56.7999 35.9707 57.0213 35.6298C57.2529 35.2722 57.5473 34.972 57.8863 34.7478C58.2253 34.5236 58.6016 34.3803 58.9919 34.3267C75.2246 32.0586 91.2984 32.0547 106.767 34.3149C107.152 34.368 107.523 34.5096 107.857 34.731C108.191 34.9523 108.481 35.2488 108.709 35.6017C108.929 35.9377 109.085 36.321 109.168 36.7278C109.251 37.1347 109.258 37.5563 109.19 37.9665L106.081 56.8721C105.41 60.9532 102.171 63.9152 98.381 63.9152Z" fill="#63D0FF"/>
<path d="M35.7917 38.7405L35.9257 36.0267C35.9466 35.604 36.0582 35.1932 36.2509 34.8295C36.4437 34.4659 36.7118 34.1603 37.0324 33.9388C38.9757 32.5968 44.2178 29.6421 50.9074 31.1909C51.3771 31.3004 51.8056 31.57 52.1344 31.9632C52.4633 32.3563 52.6766 32.8539 52.7454 33.3883L52.9245 34.8004L35.7917 38.7405Z" fill="#3F3D56"/>
<path d="M130.126 38.7405L112.993 34.8004L113.281 32.5318C113.314 32.264 113.418 32.0134 113.578 31.8123C113.739 31.6112 113.95 31.4689 114.183 31.4035C121.898 29.2241 127.803 33.0944 129.429 34.3326C129.583 34.4505 129.711 34.6068 129.804 34.7894C129.896 34.9719 129.949 35.1759 129.96 35.3855L130.126 38.7405Z" fill="#3F3D56"/>
<path d="M30.3518 122.716C29.939 122.721 29.5335 122.592 29.1835 122.346C24.596 119.33 21.7361 113.805 20.6895 105.926C19.825 99.4187 20.186 91.2505 21.7624 81.6486C24.5573 64.625 30.415 47.6091 32.8038 41.0835C33.1202 40.2222 33.612 39.4566 34.2394 38.8484C34.8669 38.2401 35.6125 37.8063 36.4161 37.5818C41.3406 36.2183 49.9374 33.931 52.1824 33.931C55.2591 33.931 56.9238 37.1913 56.9403 37.2242L56.9496 37.2511L59.6515 50.4402V50.6306C61.1422 56.3078 60.0346 60.4089 58.8422 62.8498C57.548 65.4991 55.8733 66.8219 55.8566 66.8349C53.227 69.0884 48.9427 76.348 44.6789 85.7782C40.2481 95.5782 36.9635 105.248 35.8928 111.645C34.5822 119.476 32.6611 121.873 31.2802 122.505C30.9859 122.642 30.6706 122.714 30.3518 122.716Z" fill="#E6E6E6"/>
<path d="M97.3664 62.2945H68.2854C66.569 62.2918 64.9067 61.6185 63.5824 60.3894C62.258 59.1603 61.3539 57.4518 61.0242 55.5557L57.8417 37.1121C57.771 36.7039 57.7754 36.2836 57.8547 35.8774C57.9339 35.4711 58.0863 35.0875 58.3024 34.7501C58.5186 34.4128 58.7939 34.1289 59.1113 33.916C59.4287 33.7031 59.7815 33.5657 60.148 33.5123C75.4865 31.3064 90.6749 31.3026 105.291 33.5008C105.652 33.5562 106 33.6933 106.313 33.904C106.626 34.1147 106.898 34.3945 107.112 34.7266C107.326 35.0587 107.479 35.4362 107.56 35.8364C107.641 36.2366 107.649 36.6511 107.584 37.055L104.647 55.4419C104.341 57.3644 103.444 59.1044 102.113 60.3572C100.782 61.61 99.1014 62.2958 97.3664 62.2945Z" fill="#E6E6E6"/>
<path d="M135.566 122.716C135.247 122.714 134.932 122.643 134.637 122.505C133.257 121.873 131.335 119.476 130.025 111.645C128.954 105.248 125.669 95.5782 121.239 85.7782C116.975 76.348 112.691 69.0884 110.058 66.8322C110.044 66.8218 108.37 65.4991 107.075 62.8497C105.883 60.4089 104.775 56.3078 106.266 50.6306L106.268 50.4175L108.971 37.2369L108.977 37.2242C108.994 37.1913 110.658 33.931 113.735 33.931C115.98 33.931 124.577 36.2183 129.501 37.5818C130.305 37.8064 131.051 38.2402 131.678 38.8484C132.306 39.4566 132.797 40.2222 133.114 41.0835C135.503 47.6091 141.36 64.625 144.155 81.6485C145.732 91.2505 146.093 99.4186 145.228 105.926C144.182 113.805 141.322 119.33 136.728 122.35C136.38 122.594 135.977 122.721 135.566 122.716Z" fill="#E6E6E6"/>
<path d="M63.1611 84.4788C67.0377 84.4788 70.1803 80.9413 70.1803 76.5775C70.1803 72.2138 67.0377 68.6763 63.1611 68.6763C59.2846 68.6763 56.142 72.2138 56.142 76.5775C56.142 80.9413 59.2846 84.4788 63.1611 84.4788Z" fill="#3F3D56"/>
<path d="M63.1611 81.845C65.7455 81.845 67.8406 79.4867 67.8406 76.5775C67.8406 73.6683 65.7455 71.31 63.1611 71.31C60.5767 71.31 58.4817 73.6683 58.4817 76.5775C58.4817 79.4867 60.5767 81.845 63.1611 81.845Z" fill="#2F2E41"/>
<path d="M102.397 84.4788C106.273 84.4788 109.416 80.9413 109.416 76.5775C109.416 72.2138 106.273 68.6763 102.397 68.6763C98.5199 68.6763 95.3773 72.2138 95.3773 76.5775C95.3773 80.9413 98.5199 84.4788 102.397 84.4788Z" fill="#3F3D56"/>
<path d="M102.397 81.845C104.981 81.845 107.076 79.4867 107.076 76.5775C107.076 73.6683 104.981 71.31 102.397 71.31C99.8121 71.31 97.7171 73.6683 97.7171 76.5775C97.7171 79.4867 99.8121 81.845 102.397 81.845Z" fill="#2F2E41"/>
<path d="M78.4593 67.0555C78.7575 67.0555 78.9993 66.7834 78.9993 66.4477C78.9993 66.112 78.7575 65.8399 78.4593 65.8399C78.1611 65.8399 77.9194 66.112 77.9194 66.4477C77.9194 66.7834 78.1611 67.0555 78.4593 67.0555Z" fill="#2F2E41"/>
<path d="M80.7991 67.0555C81.0973 67.0555 81.339 66.7834 81.339 66.4477C81.339 66.112 81.0973 65.8399 80.7991 65.8399C80.5009 65.8399 80.2591 66.112 80.2591 66.4477C80.2591 66.7834 80.5009 67.0555 80.7991 67.0555Z" fill="#2F2E41"/>
<path d="M79.7192 69.2841C80.0174 69.2841 80.2591 69.0119 80.2591 68.6763C80.2591 68.3406 80.0174 68.0685 79.7192 68.0685C79.421 68.0685 79.1793 68.3406 79.1793 68.6763C79.1793 69.0119 79.421 69.2841 79.7192 69.2841Z" fill="#2F2E41"/>
<path d="M81.8789 69.2841C82.1771 69.2841 82.4189 69.0119 82.4189 68.6763C82.4189 68.3406 82.1771 68.0685 81.8789 68.0685C81.5807 68.0685 81.339 68.3406 81.339 68.6763C81.339 69.0119 81.5807 69.2841 81.8789 69.2841Z" fill="#2F2E41"/>
<path d="M84.0387 69.2841C84.3369 69.2841 84.5786 69.0119 84.5786 68.6763C84.5786 68.3406 84.3369 68.0685 84.0387 68.0685C83.7405 68.0685 83.4987 68.3406 83.4987 68.6763C83.4987 69.0119 83.7405 69.2841 84.0387 69.2841Z" fill="#2F2E41"/>
<path d="M86.1984 69.2841C86.4966 69.2841 86.7384 69.0119 86.7384 68.6763C86.7384 68.3406 86.4966 68.0685 86.1984 68.0685C85.9002 68.0685 85.6585 68.3406 85.6585 68.6763C85.6585 69.0119 85.9002 69.2841 86.1984 69.2841Z" fill="#2F2E41"/>
<path d="M83.1388 67.0555C83.437 67.0555 83.6787 66.7834 83.6787 66.4477C83.6787 66.112 83.437 65.8399 83.1388 65.8399C82.8406 65.8399 82.5988 66.112 82.5988 66.4477C82.5988 66.7834 82.8406 67.0555 83.1388 67.0555Z" fill="#2F2E41"/>
<path d="M85.4785 67.0555C85.7767 67.0555 86.0184 66.7834 86.0184 66.4477C86.0184 66.112 85.7767 65.8399 85.4785 65.8399C85.1803 65.8399 84.9386 66.112 84.9386 66.4477C84.9386 66.7834 85.1803 67.0555 85.4785 67.0555Z" fill="#2F2E41"/>
<path d="M87.8182 67.0555C88.1164 67.0555 88.3582 66.7834 88.3582 66.4477C88.3582 66.112 88.1164 65.8399 87.8182 65.8399C87.52 65.8399 87.2783 66.112 87.2783 66.4477C87.2783 66.7834 87.52 67.0555 87.8182 67.0555Z" fill="#2F2E41"/>
<path d="M85.2985 85.1879H80.6191C80.4043 85.1879 80.1983 85.0918 80.0464 84.9208C79.8945 84.7499 79.8092 84.518 79.8092 84.2762C79.8092 84.0344 79.8945 83.8025 80.0464 83.6315C80.1983 83.4605 80.4043 83.3645 80.6191 83.3645H85.2985C85.5133 83.3645 85.7193 83.4605 85.8712 83.6315C86.0231 83.8025 86.1084 84.0344 86.1084 84.2762C86.1084 84.518 86.0231 84.7499 85.8712 84.9208C85.7193 85.0918 85.5133 85.1879 85.2985 85.1879Z" fill="#2F2E41"/>
<path d="M54.3141 45.5573C54.0121 45.5563 53.7192 45.4409 53.4826 45.2295C53.2461 45.0182 53.0797 44.7233 53.0103 44.3924L52.2927 40.9628C52.2115 40.573 52.2711 40.1628 52.4584 39.8224C52.6457 39.482 52.9454 39.2393 53.2916 39.1475C53.6378 39.0557 54.0023 39.1223 54.3049 39.3328C54.6075 39.5433 54.8234 39.8804 54.9054 40.2701L55.623 43.6997C55.6692 43.9217 55.6701 44.1526 55.6259 44.3751C55.5816 44.5976 55.4932 44.8059 55.3674 44.9845C55.2415 45.1632 55.0814 45.3075 54.899 45.4067C54.7166 45.5058 54.5166 45.5573 54.3141 45.5573Z" fill="#3F3D56"/>
<path d="M111.784 45.3546C111.581 45.3547 111.381 45.3032 111.199 45.2041C111.016 45.1049 110.856 44.9606 110.73 44.7819C110.604 44.6033 110.516 44.3949 110.472 44.1724C110.427 43.9499 110.428 43.7191 110.475 43.4971L111.192 40.0675C111.274 39.6778 111.49 39.3407 111.793 39.1302C112.095 38.9197 112.46 38.853 112.806 38.9449C113.152 39.0367 113.452 39.2794 113.639 39.6198C113.827 39.9602 113.886 40.3704 113.805 40.7602L113.087 44.1898C113.018 44.5207 112.852 44.8156 112.615 45.0269C112.378 45.2383 112.086 45.3537 111.784 45.3546Z" fill="#3F3D56"/>
<path d="M44.4125 55.6804C43.9708 55.6805 43.5399 55.5275 43.1782 55.2421L41.6719 54.0551C41.3885 53.8316 41.157 53.5345 40.9972 53.189C40.8374 52.8435 40.7539 52.4598 40.7538 52.0702V48.435C40.7545 47.705 41.0125 47.0051 41.471 46.489C41.9296 45.9728 42.5513 45.6824 43.1997 45.6816H45.507C46.1554 45.6824 46.7772 45.9728 47.2357 46.489C47.6943 47.0051 47.9522 47.705 47.9529 48.435V52.1059C47.9523 52.4854 47.8728 52.8594 47.7207 53.1981C47.5687 53.5368 47.3483 53.8307 47.0773 54.0563L45.6892 55.2077C45.3195 55.5149 44.872 55.6806 44.4125 55.6804Z" fill="#3F3D56"/>
<path d="M45.507 68.9801H43.1997C42.5513 68.9793 41.9296 68.689 41.471 68.1728C41.0125 67.6566 40.7545 66.9568 40.7538 66.2268V62.5915C40.7539 62.202 40.8374 61.8182 40.9972 61.4727C41.157 61.1272 41.3885 60.8301 41.6719 60.6066L43.1782 59.4196C43.5472 59.1286 43.9881 58.9753 44.4387 58.9815C44.8892 58.9877 45.3266 59.153 45.6892 59.4541L47.0773 60.6054C47.3483 60.8311 47.5687 61.125 47.7207 61.4637C47.8728 61.8023 47.9523 62.1764 47.9529 62.5558V66.2268C47.9522 66.9568 47.6943 67.6566 47.2357 68.1728C46.7772 68.689 46.1554 68.9793 45.507 68.9801Z" fill="#3F3D56"/>
<path d="M52.7061 61.3828H49.4767C49.1306 61.3826 48.7897 61.2886 48.4828 61.1087C48.1758 60.9288 47.9119 60.6684 47.7134 60.3493L46.6589 58.6537C46.4003 58.2383 46.2641 57.742 46.2696 57.2348C46.2751 56.7277 46.422 56.2353 46.6895 55.8271L47.7123 54.2646C47.9128 53.9595 48.1739 53.7115 48.4747 53.5403C48.7756 53.3692 49.1079 53.2797 49.445 53.2789H52.7061C53.3546 53.2798 53.9763 53.5701 54.4349 54.0863C54.8934 54.6025 55.1513 55.3023 55.1521 56.0323V58.6294C55.1513 59.3594 54.8934 60.0592 54.4349 60.5754C53.9763 61.0916 53.3546 61.3819 52.7061 61.3828Z" fill="#3F3D56"/>
<path d="M39.0501 61.3828H35.8206C35.1721 61.3819 34.5504 61.0916 34.0919 60.5754C33.6333 60.0592 33.3754 59.3594 33.3747 58.6294V56.0323C33.3754 55.3023 33.6333 54.6025 34.0919 54.0863C34.5504 53.5701 35.1721 53.2798 35.8206 53.2789H39.0818C39.4189 53.2796 39.7512 53.3692 40.052 53.5403C40.3529 53.7115 40.614 53.9595 40.8144 54.2646L41.8373 55.8271C42.1048 56.2353 42.2516 56.7277 42.2571 57.2348C42.2626 57.742 42.1264 58.2383 41.8679 58.6537L40.8134 60.3493C40.6148 60.6684 40.3509 60.9288 40.044 61.1087C39.737 61.2886 39.3961 61.3826 39.0501 61.3828Z" fill="#3F3D56"/>
<path d="M121.654 51.6582C123.94 51.6582 125.794 49.5719 125.794 46.9985C125.794 44.425 123.94 42.3387 121.654 42.3387C119.368 42.3387 117.515 44.425 117.515 46.9985C117.515 49.5719 119.368 51.6582 121.654 51.6582Z" fill="#3F3D56"/>
<path d="M130.833 62.3958C133.119 62.3958 134.973 60.3096 134.973 57.7361C134.973 55.1626 133.119 53.0764 130.833 53.0764C128.547 53.0764 126.694 55.1626 126.694 57.7361C126.694 60.3096 128.547 62.3958 130.833 62.3958Z" fill="#3F3D56"/>
<path d="M121.654 72.5256C123.94 72.5256 125.794 70.4394 125.794 67.8659C125.794 65.2924 123.94 63.2062 121.654 63.2062C119.368 63.2062 117.515 65.2924 117.515 67.8659C117.515 70.4394 119.368 72.5256 121.654 72.5256Z" fill="#3F3D56"/>
<path d="M112.475 62.1932C114.762 62.1932 116.615 60.107 116.615 57.5335C116.615 54.96 114.762 52.8738 112.475 52.8738C110.189 52.8738 108.336 54.96 108.336 57.5335C108.336 60.107 110.189 62.1932 112.475 62.1932Z" fill="#3F3D56"/>
<path d="M130.833 60.775C130.299 60.775 129.777 60.5968 129.333 60.2628C128.889 59.9289 128.543 59.4543 128.339 58.899C128.135 58.3437 128.081 57.7327 128.185 57.1432C128.289 56.5537 128.547 56.0122 128.924 55.5872C129.302 55.1622 129.783 54.8728 130.306 54.7555C130.83 54.6382 131.373 54.6984 131.866 54.9284C132.36 55.1584 132.781 55.548 133.078 56.0477C133.374 56.5475 133.533 57.135 133.533 57.7361C133.532 58.5418 133.247 59.3142 132.741 59.8839C132.235 60.4536 131.549 60.7741 130.833 60.775ZM130.833 55.1023C130.37 55.1023 129.918 55.2568 129.533 55.5462C129.148 55.8356 128.849 56.2469 128.672 56.7282C128.494 57.2094 128.448 57.739 128.538 58.2499C128.629 58.7608 128.851 59.2301 129.179 59.5984C129.506 59.9667 129.923 60.2176 130.377 60.3192C130.831 60.4208 131.301 60.3687 131.729 60.1693C132.156 59.97 132.521 59.6324 132.779 59.1993C133.036 58.7662 133.173 58.257 133.173 57.7361C133.172 57.0378 132.925 56.3683 132.487 55.8746C132.048 55.3808 131.453 55.1031 130.833 55.1023Z" fill="#E6E6E6"/>
<path d="M124.547 49.2594L119.122 49.173L121.901 43.9272L124.547 49.2594ZM119.75 48.7777L123.929 48.8443L121.891 44.7376L119.75 48.7777Z" fill="#E6E6E6"/>
<path d="M114.635 59.9646H110.316V55.1023H114.635V59.9646ZM110.676 59.5594H114.275V55.5075H110.676V59.5594Z" fill="#E6E6E6"/>
<path d="M123.888 69.9579L121.909 67.7346L123.654 65.7739L123.4 65.487L121.654 67.4481L119.909 65.487L119.654 65.7739L121.399 67.7346L119.421 69.9579L119.675 70.2448L121.654 68.0209L123.634 70.2448L123.888 69.9579Z" fill="#E6E6E6"/>
<path d="M44.4065 14.9596C43.8726 14.9596 43.3506 14.7814 42.9066 14.4475C42.4627 14.1136 42.1167 13.6389 41.9123 13.0836C41.708 12.5283 41.6545 11.9173 41.7587 11.3278C41.8629 10.7383 42.12 10.1968 42.4975 9.77183C42.8751 9.34683 43.3561 9.0574 43.8798 8.94014C44.4035 8.82288 44.9463 8.88306 45.4396 9.11307C45.9329 9.34308 46.3546 9.73259 46.6512 10.2323C46.9478 10.7321 47.1062 11.3196 47.1062 11.9207C47.1054 12.7264 46.8207 13.4988 46.3146 14.0685C45.8085 14.6383 45.1222 14.9587 44.4065 14.9596ZM44.4065 9.28694C43.9437 9.28694 43.4914 9.44141 43.1066 9.73081C42.7219 10.0202 42.422 10.4315 42.2449 10.9128C42.0678 11.394 42.0215 11.9236 42.1117 12.4345C42.202 12.9454 42.4248 13.4147 42.7521 13.783C43.0793 14.1514 43.4962 14.4022 43.95 14.5038C44.4039 14.6055 44.8743 14.5533 45.3019 14.354C45.7294 14.1546 46.0948 13.817 46.3519 13.3839C46.609 12.9508 46.7462 12.4416 46.7462 11.9207C46.7455 11.2224 46.4988 10.553 46.0602 10.0592C45.6215 9.56544 45.0268 9.28771 44.4065 9.28694Z" fill="#E6E6E6"/>
<path d="M38.3003 9.92707L32.8749 9.84071L35.6541 4.59488L38.3003 9.92707ZM33.5034 9.44541L37.6819 9.51199L35.6439 5.40526L33.5034 9.44541Z" fill="#E6E6E6"/>
<path d="M30.315 17.3181H25.9955V12.4558H30.315V17.3181ZM26.3555 16.913H29.9551V12.861H26.3555V16.913Z" fill="#E6E6E6"/>
<path d="M34.2217 26.3709L32.2428 24.1476L33.9879 22.1871L33.7336 21.9002L31.988 23.8614L30.2424 21.9002L29.9881 22.1871L31.7331 24.1476L29.7543 26.3709L30.0086 26.6578L31.988 24.4339L33.9674 26.6578L34.2217 26.3709Z" fill="#E6E6E6"/>
<path opacity="0.2" d="M156.12 69.7905L149.134 75.709L157.02 71.8165L156.12 69.7905Z" fill="black"/>
<path d="M26.8955 77.084L18.0765 77.4892L16.9966 70.8035L24.5557 68.1697L26.8955 77.084Z" fill="#A0616A"/>
<path d="M23.6531 60.6988L21.6861 58.4443L24.0979 54.2931L28.2259 46.5582C28.091 46.225 28.0492 45.8535 28.1059 45.493C28.1627 45.1324 28.3153 44.7997 28.5437 44.5389C28.7721 44.2782 29.0654 44.1016 29.3848 44.0325C29.7043 43.9635 30.0349 44.0052 30.3328 44.1523C30.6307 44.2993 30.882 44.5447 31.0533 44.8559C31.2246 45.1672 31.308 45.5297 31.2923 45.8954C31.2767 46.2612 31.1628 46.613 30.9656 46.9043C30.7685 47.1955 30.4975 47.4126 30.1884 47.5267L26.7811 55.7844L23.6531 60.6988Z" fill="#A0616A"/>
<path d="M21.4742 65.8458C21.2432 66.2484 20.9141 66.5676 20.5263 66.7653C20.1384 66.963 19.7082 67.0307 19.2871 66.9605C18.8862 66.9073 18.5079 66.7234 18.1985 66.4315C17.8892 66.1396 17.6623 65.7524 17.5457 65.3174C17.4599 65.0086 17.4349 64.6825 17.4725 64.3618C17.5101 64.041 17.6094 63.7334 17.7634 63.4603C19.0793 60.9633 21.5062 57.6656 21.5306 57.6326L21.5692 57.5802L25.6625 58.5785L21.4742 65.8458Z" fill="#63D0FF"/>
<path d="M24.7935 121.106L27.2392 121.106L28.4026 110.487L24.793 110.487L24.7935 121.106Z" fill="#A0616A"/>
<path d="M24.1696 120.207L28.9861 120.207H28.9863C29.8004 120.207 30.5811 120.571 31.1567 121.219C31.7323 121.867 32.0558 122.746 32.0558 123.662V123.775L24.1697 123.775L24.1696 120.207Z" fill="#2F2E41"/>
<path d="M5.74997 119.915L8.16816 120.326L10.7289 110.022L7.55876 109.415L5.74997 119.915Z" fill="#A0616A"/>
<path d="M5.25247 118.921L10.0149 119.731L10.0151 119.731C10.82 119.868 11.5436 120.359 12.0267 121.097C12.5099 121.835 12.7129 122.758 12.5913 123.664L12.5764 123.775L4.77884 122.448L5.25247 118.921Z" fill="#2F2E41"/>
<path d="M17.7165 75.4632L26.1755 73.8425L28.7929 79.9155L28.8926 119.551L24.25 119.518L22.3093 87.4384L9.94076 117.081L4.95343 116.407L15.8258 84.6313C15.8258 84.6313 15.2273 79.0173 17.1225 76.2102L17.7165 75.4632Z" fill="#2F2E41"/>
<path d="M14.5762 63.4981C14.4469 63.061 14.4332 62.5909 14.5367 62.1452C14.6401 61.6994 14.8564 61.297 15.1591 60.9869L16.3613 59.7569L19.7505 59.1141L21.8696 58.6805L25.2756 69.7905L17.0032 74.0688C16.2773 73.8924 15.9873 73.4453 16.4097 72.5565L14.5762 63.4981Z" fill="#63D0FF"/>
<path d="M22.1682 67.2469L24.5346 65.547L27.6437 69.0618L33.5126 75.2081C33.8301 75.1284 34.1616 75.1592 34.4632 75.2963C34.7649 75.4334 35.0225 75.6703 35.2019 75.9758C35.3813 76.2812 35.4741 76.6408 35.468 77.0069C35.462 77.373 35.3573 77.7284 35.1679 78.0261C34.9785 78.3238 34.7132 78.5497 34.4072 78.6741C34.1013 78.7984 33.769 78.8152 33.4543 78.7223C33.1397 78.6294 32.8575 78.4312 32.6451 78.1538C32.4327 77.8765 32.3001 77.5331 32.2649 77.169L25.7925 71.7084L22.1682 67.2469Z" fill="#A0616A"/>
<path d="M18.1454 63.7823C17.8433 63.4447 17.6339 63.0163 17.5423 62.5483C17.4508 62.0803 17.4809 61.5925 17.629 61.1432C17.7583 60.7128 17.9964 60.3343 18.3141 60.054C18.6318 59.7737 19.0152 59.6039 19.4173 59.5654C19.7034 59.5347 19.992 59.5746 20.263 59.6823C20.534 59.7901 20.7809 59.9631 20.9864 60.1893C22.8844 62.1549 25.2486 65.51 25.2722 65.5436L25.3098 65.597L23.5954 69.8985L18.1454 63.7823Z" fill="#63D0FF"/>
<path d="M18.2631 57.7624C20.3178 57.7624 21.9834 55.8875 21.9834 53.5746C21.9834 51.2617 20.3178 49.3867 18.2631 49.3867C16.2084 49.3867 14.5428 51.2617 14.5428 53.5746C14.5428 55.8875 16.2084 57.7624 18.2631 57.7624Z" fill="#A0616A"/>
<path d="M15.2511 59.5407C14.6741 59.5406 14.0978 59.501 13.5251 59.4223L13.4466 59.4115L12.8473 55.7493C12.5932 54.1969 12.8765 52.5938 13.6393 51.2691C14.402 49.9445 15.5863 48.9987 16.9489 48.6259C17.0399 48.5999 17.1354 48.6027 17.225 48.634C17.3146 48.6652 17.3948 48.7236 17.4568 48.8029L17.5998 48.7468C18.1469 48.532 18.7264 48.4406 19.3049 48.4779C19.8835 48.5152 20.4498 48.6804 20.9717 48.964C21.4935 49.2477 21.9606 49.6443 22.3463 50.1312C22.732 50.6181 23.0287 51.1857 23.2195 51.8016L23.2549 51.9161L22.3012 52.2904C22.004 52.4071 21.7336 52.5968 21.5098 52.8459C21.286 53.0949 21.1143 53.397 21.0072 53.7302C20.9001 54.0633 20.8603 54.4191 20.8908 54.7717C20.9212 55.1244 21.0211 55.4649 21.1831 55.7686L22.1583 57.596L22.0545 57.6546C19.9498 58.8761 17.619 59.5223 15.2511 59.5407Z" fill="#2F2E41"/>
<path d="M143.065 77.0654C143.108 76.8313 143.196 76.6106 143.323 76.419C143.45 76.2274 143.613 76.0694 143.8 75.9563C143.987 75.8431 144.194 75.7775 144.406 75.7641C144.618 75.7507 144.83 75.7898 145.027 75.8786L148.411 71.4889L149.134 74.397L145.81 78.1197C145.656 78.4827 145.388 78.7693 145.059 78.9252C144.729 79.081 144.36 79.0954 144.021 78.9654C143.683 78.8355 143.399 78.5703 143.222 78.2201C143.046 77.8699 142.99 77.4591 143.065 77.0654Z" fill="#FFB6B6"/>
<path d="M158.163 57.7663L159.549 57.6819L159.758 58.6737C159.758 58.6737 159.738 59.9438 158.474 62.5836C157.21 65.2235 147.417 76.9771 147.417 76.9771L145.296 74.2677L150.538 68.1898L153.713 61.8194L158.163 57.7663Z" fill="#63D0FF"/>
</svg>
